$MeshFormat
4.1 0 8
$EndMeshFormat
$PhysicalNames
4
1 1 "Gamma_D_hot"
1 2 "Gamma_D_cold"
1 3 "Gamma_N_insulated"
2 100 "Omega"
$EndPhysicalNames
$Entities
7 7 1 0
5 1.04 0.5 0 0 
6 1.54 0.5 0 0 
7 2.04 0.5 0 0 
8 0 0 0 0 
9 2.8 0 0 0 
10 0 1 0 0 
11 2.8 1 0 0 
5 0.7599999000000001 0.3599999 -1e-07 1.0400001 0.6400001 1e-07 1 3 2 5 -5 
6 1.2599999 0.3599999 -1e-07 1.5400001 0.6400001 1e-07 1 3 2 6 -6 
7 1.7599999 0.3599999 -1e-07 2.0400001 0.6400001 1e-07 1 3 2 7 -7 
8 -1.000000000583867e-07 -1e-07 -1e-07 2.8000001 1e-07 1e-07 1 3 2 8 -9 
9 -1e-07 -9.999999994736442e-08 -1e-07 1e-07 1.0000001 1e-07 1 1 2 10 -8 
10 2.7999999 -9.999999994736442e-08 -1e-07 2.8000001 1.0000001 1e-07 1 2 2 9 -11 
11 -1.000000000583867e-07 0.9999999000000001 -1e-07 2.8000001 1.0000001 1e-07 1 3 2 11 -10 
1 -1.000000000583867e-07 -9.999999994736442e-08 -1e-07 2.8000001 1.0000001 1e-07 1 100 7 8 10 11 9 -5 -6 -7 
$EndEntities
$Nodes
15 767 1 767
0 5 0 1
1
1.04 0.5 0
0 6 0 1
2
1.54 0.5 0
0 7 0 1
3
2.04 0.5 0
0 8 0 1
4
0 0 0
0 9 0 1
5
2.8 0 0
0 10 0 1
6
0 1 0
0 11 0 1
7
2.8 1 0
1 5 0 12
8
9
10
11
12
13
14
15
16
17
18
19
1.023963843591449 0.5650612440861276 0
0.9795290645423619 0.6152177412251119 0
0.9168751352357453 0.6389792423737276 0
0.8503553158140451 0.6309022739759581 0
0.7952084952560459 0.5928371721537113 0
0.7640681455603527 0.5335041930002581 0
0.7640681455603527 0.466495806999742 0
0.7952084952560459 0.4071628278462887 0
0.850355315814045 0.3690977260240419 0
0.9168751352357452 0.3610207576262724 0
0.9795290645423618 0.3847822587748881 0
1.023963843591449 0.4349387559138723 0
1 6 0 12
20
21
22
23
24
25
26
27
28
29
30
31
1.523963843591449 0.5650612440861276 0
1.479529064542362 0.6152177412251119 0
1.416875135235745 0.6389792423737276 0
1.350355315814045 0.6309022739759581 0
1.295208495256046 0.5928371721537113 0
1.264068145560353 0.5335041930002581 0
1.264068145560353 0.466495806999742 0
1.295208495256046 0.4071628278462887 0
1.350355315814045 0.3690977260240419 0
1.416875135235745 0.3610207576262724 0
1.479529064542362 0.3847822587748881 0
1.523963843591449 0.4349387559138723 0
1 7 0 12
32
33
34
35
36
37
38
39
40
41
42
43
2.023963843591449 0.5650612440861276 0
1.979529064542362 0.6152177412251119 0
1.916875135235745 0.6389792423737276 0
1.850355315814045 0.6309022739759581 0
1.795208495256046 0.5928371721537113 0
1.764068145560353 0.5335041930002581 0
1.764068145560353 0.466495806999742 0
1.795208495256046 0.4071628278462887 0
1.850355315814045 0.3690977260240419 0
1.916875135235745 0.3610207576262724 0
1.979529064542362 0.3847822587748881 0
2.023963843591449 0.4349387559138723 0
1 8 0 39
44
45
46
47
48
49
50
51
52
53
54
55
56
57
58
59
60
61
62
63
64
65
66
67
68
69
70
71
72
73
74
75
76
77
78
79
80
81
82
0.06999999999999984 0 0
0.1399999999999997 0 0
0.2099999999999995 0 0
0.2799999999999994 0 0
0.3499999999999993 0 0
0.419999999999999 0 0
0.4899999999999989 0 0
0.5599999999999987 0 0
0.6299999999999985 0 0
0.6999999999999982 0 0
0.769999999999998 0 0
0.8399999999999976 0 0
0.9099999999999975 0 0
0.9799999999999973 0 0
1.049999999999997 0 0
1.119999999999997 0 0
1.189999999999997 0 0
1.259999999999997 0 0
1.329999999999997 0 0
1.399999999999997 0 0
1.469999999999998 0 0
1.539999999999998 0 0
1.609999999999998 0 0
1.679999999999998 0 0
1.749999999999998 0 0
1.819999999999998 0 0
1.889999999999998 0 0
1.959999999999999 0 0
2.029999999999999 0 0
2.099999999999999 0 0
2.169999999999999 0 0
2.239999999999998 0 0
2.309999999999999 0 0
2.379999999999999 0 0
2.449999999999999 0 0
2.519999999999999 0 0
2.589999999999999 0 0
2.66 0 0
2.73 0 0
1 9 0 14
83
84
85
86
87
88
89
90
91
92
93
94
95
96
0 0.9333333333333333 0
0 0.8666666666666668 0
0 0.8000000000000002 0
0 0.7333333333333336 0
0 0.6666666666666672 0
0 0.6000000000000008 0
0 0.5333333333333343 0
0 0.4666666666666681 0
0 0.4000000000000014 0
0 0.3333333333333345 0
0 0.2666666666666676 0
0 0.2000000000000007 0
0 0.1333333333333339 0
0 0.06666666666666687 0
1 10 0 14
97
98
99
100
101
102
103
104
105
106
107
108
109
110
2.8 0.06666666666666661 0
2.8 0.1333333333333332 0
2.8 0.1999999999999998 0
2.8 0.2666666666666664 0
2.8 0.3333333333333328 0
2.8 0.3999999999999992 0
2.8 0.4666666666666656 0
2.8 0.5333333333333319 0
2.8 0.5999999999999986 0
2.8 0.6666666666666655 0
2.8 0.7333333333333324 0
2.8 0.7999999999999993 0
2.8 0.8666666666666661 0
2.8 0.9333333333333331 0
1 11 0 39
111
112
113
114
115
116
117
118
119
120
121
122
123
124
125
126
127
128
129
130
131
132
133
134
135
136
137
138
139
140
141
142
143
144
145
146
147
148
149
2.73 1 0
2.66 1 0
2.59 1 0
2.52 1 0
2.450000000000001 1 0
2.380000000000001 1 0
2.310000000000001 1 0
2.240000000000001 1 0
2.170000000000001 1 0
2.100000000000001 1 0
2.030000000000002 1 0
1.960000000000002 1 0
1.890000000000002 1 0
1.820000000000003 1 0
1.750000000000003 1 0
1.680000000000003 1 0
1.610000000000003 1 0
1.540000000000003 1 0
1.470000000000002 1 0
1.400000000000002 1 0
1.330000000000002 1 0
1.260000000000002 1 0
1.190000000000002 1 0
1.120000000000002 1 0
1.050000000000002 1 0
0.9800000000000015 1 0
0.9100000000000015 1 0
0.8400000000000012 1 0
0.7700000000000009 1 0
0.7000000000000011 1 0
0.6300000000000012 1 0
0.5600000000000014 1 0
0.4900000000000011 1 0
0.4200000000000008 1 0
0.3500000000000005 1 0
0.2800000000000007 1 0
0.2100000000000004 1 0
0.1400000000000001 1 0
0.07000000000000028 1 0
2 1 0 618
150
151
152
153
154
155
156
157
158
159
160
161
162
163
164
165
166
167
168
169
170
171
172
173
174
175
176
177
178
179
180
181
182
183
184
185
186
187
188
189
190
191
192
193
194
195
196
197
198
199
200
201
202
203
204
205
206
207
208
209
210
211
212
213
214
215
216
217
218
219
220
221
222
223
224
225
226
227
228
229
230
231
232
233
234
235
236
237
238
239
240
241
242
243
244
245
246
247
248
249
250
251
252
253
254
255
256
257
258
259
260
261
262
263
264
265
266
267
268
269
270
271
272
273
274
275
276
277
278
279
280
281
282
283
284
285
286
287
288
289
290
291
292
293
294
295
296
297
298
299
300
301
302
303
304
305
306
307
308
309
310
311
312
313
314
315
316
317
318
319
320
321
322
323
324
325
326
327
328
329
330
331
332
333
334
335
336
337
338
339
340
341
342
343
344
345
346
347
348
349
350
351
352
353
354
355
356
357
358
359
360
361
362
363
364
365
366
367
368
369
370
371
372
373
374
375
376
377
378
379
380
381
382
383
384
385
386
387
388
389
390
391
392
393
394
395
396
397
398
399
400
401
402
403
404
405
406
407
408
409
410
411
412
413
414
415
416
417
418
419
420
421
422
423
424
425
426
427
428
429
430
431
432
433
434
435
436
437
438
439
440
441
442
443
444
445
446
447
448
449
450
451
452
453
454
455
456
457
458
459
460
461
462
463
464
465
466
467
468
469
470
471
472
473
474
475
476
477
478
479
480
481
482
483
484
485
486
487
488
489
490
491
492
493
494
495
496
497
498
499
500
501
502
503
504
505
506
507
508
509
510
511
512
513
514
515
516
517
518
519
520
521
522
523
524
525
526
527
528
529
530
531
532
533
534
535
536
537
538
539
540
541
542
543
544
545
546
547
548
549
550
551
552
553
554
555
556
557
558
559
560
561
562
563
564
565
566
567
568
569
570
571
572
573
574
575
576
577
578
579
580
581
582
583
584
585
586
587
588
589
590
591
592
593
594
595
596
597
598
599
600
601
602
603
604
605
606
607
608
609
610
611
612
613
614
615
616
617
618
619
620
621
622
623
624
625
626
627
628
629
630
631
632
633
634
635
636
637
638
639
640
641
642
643
644
645
646
647
648
649
650
651
652
653
654
655
656
657
658
659
660
661
662
663
664
665
666
667
668
669
670
671
672
673
674
675
676
677
678
679
680
681
682
683
684
685
686
687
688
689
690
691
692
693
694
695
696
697
698
699
700
701
702
703
704
705
706
707
708
709
710
711
712
713
714
715
716
717
718
719
720
721
722
723
724
725
726
727
728
729
730
731
732
733
734
735
736
737
738
739
740
741
742
743
744
745
746
747
748
749
750
751
752
753
754
755
756
757
758
759
760
761
762
763
764
765
766
767
2.742264973081038 0.4333333333333324 0
0.05773502691896226 0.5000000000000012 0
2.087450074522757 0.5528568916552901 0
2.73409476512542 0.6393837044171226 0
0.7051969629057834 0.5029879766527987 0
0.3815980125002065 0.05657987944341492 0
0.3813689399167368 0.9424597329268338 0
2.419158855211369 0.06746986477944694 0
2.415435796878138 0.9393972177775118 0
0.05603361946706809 0.7026376465139826 0
0.05773502691896271 0.300000000000001 0
2.203810254579492 0.06099300549596176 0
0.5949999999999985 0.06062177826491044 0
0.6034973551366248 0.9407324305671314 0
2.207686737827041 0.9409621283153533 0
2.750417465558916 0.2451213743821881 0
1.647615113939705 0.9434502799744192 0
1.645377726470844 0.05417021918179449 0
1.155114248350331 0.05991245452909399 0
1.157302985682814 0.9434884775019167 0
2.046963328913374 0.3715432289967712 0
0.7910462784201224 0.3373569874321501 0
0.787344088638161 0.6604376133816505 0
1.04520826316736 0.6286260737363636 0
1.545199353205995 0.3713390257008456 0
1.042025477497958 0.3622013783220688 0
1.54520792854022 0.6286259562887765 0
1.969274554997487 0.6782306280964298 0
1.794596819752576 0.3431035119513007 0
1.802331342475217 0.667849318797225 0
1.991439328184544 0.0598954057837674 0
1.275648322163852 0.3380121297893351 0
1.289816560359338 0.6596282706060039 0
0.9400993308257011 0.05899632895994678 0
0.9417701599502589 0.9398240595766176 0
2.555365909564988 0.9395943334212419 0
1.504516996462487 0.9378993798982077 0
1.505261080284355 0.07113756027893353 0
2.554999999999999 0.06062177826491078 0
0.244596855115945 0.9394161101224738 0
0.2509148076064274 0.05852519414137197 0
2.737193901838947 0.7642470903854959 0
1.371879236675496 0.9353550396001405 0
1.363082843354583 0.05721575799296019 0
1.851883698683165 0.937698830504062 0
1.8624526074548 0.05613320976983138 0
0.7346507611013736 0.06119550248466166 0
0.735000000000001 0.9393782217350894 0
2.06532395133067 0.9411803164653854 0
0.05342581261707147 0.8328495772873786 0
0.05810812490226058 0.169131629272487 0
1.597770843245407 0.4221864614339426 0
1.610916717067441 0.3579052044071759 0
1.566308543990543 0.3075061411872502 0
1.632445218964794 0.2939829882516338 0
1.587522678027445 0.2433163524750835 0
1.653983352765723 0.229711873895278 0
1.523151061996443 0.2552300963816456 0
1.490847154834718 0.6818891136639993 0
1.564965873180566 0.6929342425362203 0
1.43381134542051 0.7114988353636746 0
1.610314247823757 0.6451880436576418 0
1.630525071349783 0.7071403122362835 0
1.587280775090189 0.7569448285792475 0
1.653267438680872 0.7705375201985115 0
0.9659705431353444 0.3193649242263016 0
1.039248183269565 0.2925378647544233 0
0.9874758370147343 0.2518448441141353 0
1.052069770629221 0.2298838929503752 0
1.102567273336874 0.269318848869801 0
0.9908461070446271 0.681894600005348 0
1.064968830790957 0.6929383801863976 0
0.9321925436567382 0.7110704584967904 0
1.109890311784532 0.6391658376108187 0
1.130211373422276 0.7041531660323522 0
1.087233818543278 0.7564561453118366 0
1.153870775730119 0.7707593969849984 0
1.089674138934264 0.4215540876602365 0
2.09158389739182 0.4488014043741086 0
2.153795229916815 0.4968270847319839 0
2.125575809586219 0.3816981189861757 0
2.09719773258224 0.3187141766445011 0
2.162568108720926 0.3282957295382452 0
2.136730094616951 0.2669813853494725 0
2.203220564864457 0.2781678586109948 0
2.228275608596673 0.338953858303422 0
2.270238876090404 0.2886893149559552 0
2.294816433089883 0.3516518158522566 0
2.33734458015768 0.2990989130204749 0
2.361840877574251 0.3623559976845785 0
2.404383788910665 0.3096090577034329 0
2.429001346986837 0.3726833784647134 0
2.386542342087619 0.4255234720477002 0
2.453483086894082 0.4357290966839236 0
2.410903956570968 0.4885259747862555 0
2.477963987282262 0.4986386160369345 0
2.435289877092332 0.5515649537346372 0
2.471616086455232 0.3199005010883034 0
2.502565668074487 0.561399504159763 0
2.459812869205263 0.614659462333832 0
2.39267125041146 0.6043933965620978 0
2.419407663151313 0.6694331004702714 0
2.351498859583311 0.6585285497727511 0
2.490035131550751 0.6853343371982429 0
2.520413439996787 0.445896337989166 0
2.377399140405671 0.7230842388130987 0
2.309018843320779 0.7119327016238388 0
2.07266872644484 0.2554770320110686 0
2.312955073163648 0.2235955867937513 0
2.319811348111324 0.5892047802150097 0
2.446895470449708 0.2568557096503392 0
2.51409366641345 0.2671606394429161 0
2.331127600155066 0.7735965865075985 0
2.26447941563152 0.7635358553389077 0
2.244004803472373 0.7050794811613684 0
2.199286464954786 0.7549871726037787 0
0.6986892734549465 0.5706148364753046 0
0.6465339935825777 0.5346062842175552 0
0.6449384342357728 0.4616305531649044 0
0.5896749190212416 0.4999021900936493 0
0.5896383371572698 0.5669847520767956 0
0.5313912359146797 0.5334159957705933 0
0.5307536610726153 0.4673280691446351 0
0.4728683101199088 0.4999484819095235 0
0.4731349938169098 0.5670141482121677 0
0.4719197625496829 0.4343024133396903 0
0.4143235070592419 0.466288691437668 0
0.4144451845584917 0.3987335828847762 0
0.4690229709252496 0.3669077240889073 0
0.3559319992128462 0.432058273976464 0
0.3561227746692914 0.3644188850536837 0
0.3559642617939369 0.4995658292090894 0
0.2973980175041067 0.3979786019747621 0
0.2976227613430913 0.3303690864702298 0
0.3564731514408663 0.2964596212855923 0
0.2975842129611475 0.2622872401201108 0
0.2389621465351248 0.3641330953627226 0
0.2388092235301138 0.4315228282834975 0
1.878536286226349 0.6919828864115399 0
1.929753239106671 0.7457685169839257 0
2.001515256267283 0.7427769869617762 0
1.81302595989571 0.7318644877705155 0
1.965965377458979 0.8036130981905076 0
1.844128478435203 0.3050864899325905 0
1.345038558760551 0.3021481936234155 0
1.280812340385062 0.2683332601864221 0
1.346776283891486 0.2326409123442434 0
1.282448547902052 0.2024291691543835 0
2.399632854904667 0.784598046400004 0
2.112089827450561 0.2037043461943333 0
0.1805659254078043 0.397789564878672 0
0.8435283489529868 0.2988288091663917 0
0.7840864449577051 0.2720693001390206 0
0.7300699434924722 0.3080464099546794 0
0.7230199377923684 0.243418665972933 0
0.6671624365842017 0.2822166272837862 0
0.8395589161874538 0.2338732183898448 0
2.075373556300198 0.6135634943570263 0
1.919515634432901 0.2824518498130988 0
1.869190273214973 0.2362634111412055 0
1.933015277738946 0.213952288849793 0
0.3567554806821494 0.2282269790303642 0
0.6612730548474587 0.214971934863278 0
0.6052425118823661 0.2538456943246129 0
1.614753897572891 0.4791411629385932 0
1.113979061377559 0.4826993808000527 0
0.6109591444301183 0.321800813282868 0
2.034365628466666 0.8026616372781515 0
2.489474581710711 0.2037454504751101 0
2.55664573732586 0.2143285143548544 0
2.581121496824913 0.2775773700723742 0
2.2439408449152 0.4112077421911932 0
2.137041215635209 0.5929320544130539 0
1.114506905479606 0.202865863177813 0
1.064048196723902 0.162706969949817 0
1.234494943055653 0.3784509422683849 0
1.898349633684047 0.8061254573671148 0
2.693936666877 0.06121986145457531 0
2.691664106228635 0.9410880115443081 0
1.810848803438101 0.242637683361645 0
0.1806878817534319 0.4650520571040759 0
0.2386533345318023 0.498808531216106 0
0.180539862728285 0.5322874345113238 0
0.2384567472378207 0.5660745016854063 0
0.1800343319988895 0.5995378320680467 0
0.2383342446227801 0.6334463916344057 0
0.1805441571200399 0.330412814338431 0
2.286719447460681 0.8256392012075249 0
0.1688672567644267 0.673948477764031 0
0.2368023439134939 0.7023124336664692 0
0.2968039378587475 0.6675502741442332 0
0.2967286920846763 0.7355687556893094 0
0.3560821832101626 0.7014201223739869 0
0.2263270472240582 0.771517999130342 0
0.3559901570139909 0.769682442169229 0
0.4153422207619596 0.7355328373378662 0
0.4152478129502238 0.804112795863245 0
0.4747744354418572 0.7699161244316902 0
0.4746579065568487 0.8386543556305556 0
0.5342222624266422 0.8042916658584854 0
0.5342994695008498 0.7357080865657063 0
0.5936182755903656 0.7699364093408281 0
2.347426954003832 0.4769557566178601 0
0.5931420010958024 0.7015028096270152 0
0.6547205671821781 0.7327558889421821 0
0.6531885879259595 0.8036337898026011 0
0.7144390560240224 0.7663079794102381 0
0.297560698401671 0.1938717721818528 0
0.2383658448142922 0.228060678620518 0
0.4158963213924465 0.2626369768368233 0
0.4161843862444162 0.1940573841897932 0
2.423917021109887 0.1946502876190712 0
0.3558237647397056 0.6335904330621354 0
2.198397076091012 0.554646394968336 0
2.067587744205896 0.7433908464702267 0
1.542746292500826 0.1921292114781482 0
1.477561646787243 0.2039495197408163 0
1.108481515120023 0.8207369829439191 0
1.04246430948503 0.8075101773179572 0
0.477232389866886 0.2274445455505926 0
0.4744646749781898 0.1566160825002187 0
1.826094639353289 0.1848240071835279 0
0.5892513975503276 0.1809100242928263 0
1.717574421564797 0.413430224943044 0
1.72266538089115 0.5908821620240419 0
1.224754168882833 0.5938371916958165 0
1.609324145959158 0.8201605260174047 0
1.542461288595676 0.807493104509863 0
1.679849053415667 0.8407059945774505 0
1.063175812455654 0.8719052743981903 0
2.045612620166657 0.1927207205281822 0
2.087611111125616 0.1373568045992914 0
2.62231918246927 0.2254226894793131 0
2.646271969946162 0.2886691598111169 0
2.605265860273916 0.3406349385107082 0
1.17636917562816 0.8346045849545225 0
1.221311876252722 0.7845162289668893 0
1.244408838958466 0.8482410397252659 0
1.288600089969492 0.7988070891560168 0
2.100372938781293 0.802927605927984 0
1.166528202065421 0.2505583838067352 0
0.1035354632652716 0.0528685395732848 0
0.1035350012923286 0.933345587263694 0
0.5330610918911026 0.6676561921217898 0
1.932861974539095 0.8634707406335266 0
1.178917987092232 0.1836590231310828 0
0.656559737686042 0.1454819897895074 0
0.7243265743081628 0.408187570408919 0
1.766525971776641 0.2033857891198637 0
1.780807580987074 0.1322546266393151 0
0.6528558367105586 0.6675383763817028 0
2.60100619942475 0.1630855334292654 0
0.3520459650297163 0.8372542975625111 0
2.666529054293122 0.1722142614676171 0
1.718803833019749 0.1485752499700257 0
2.670486206953393 0.3500707059153331 0
2.628309889355965 0.4021740327197498 0
1.695582392041401 0.2869227178884574 0
1.751575564392494 0.7227185754849343 0
1.769414304580277 0.776805282348634 0
2.12105160540385 0.654461779757872 0
1.334269280199111 0.164015008949788 0
1.270162746295998 0.1268388212557727 0
2.150453543865438 0.1525331088030617 0
1.417926917598139 0.2864734234916175 0
0.5517766951924526 0.2928927057144451 0
1.195117648490885 0.4307321943303903 0
1.151811897130845 0.3168390659764216 0
0.7113274427098912 0.8353823453187693 0
0.7719522717820119 0.8032663502937905 0
0.1222977139670065 0.4313592803649561 0
0.2365463035548372 0.1625970772838318 0
0.1789027870258924 0.1938555639586073 0
1.219946728535498 0.6636169203914062 0
0.1197888930146014 0.6297084496006473 0
0.8368569277159215 0.7015470986578012 0
1.340484424241558 0.7025168219068403 0
2.004931126660116 0.3259427539163859 0
0.9973659581663852 0.8551751326430747 0
0.1784508933728084 0.1317383911037099 0
2.467494468989898 0.1313125192646485 0
1.709427529202074 0.4926461860641688 0
1.651769935148831 0.5611151275462847 0
1.316088526567779 0.8754124006866849 0
1.355377474358919 0.8156831144439112 0
1.194186515701146 0.5383300257385359 0
0.9785525223866494 0.7956225237787797 0
0.93444989535183 0.8381323964907854 0
0.290635427020381 0.1210048755094673 0
1.564041059270838 0.872505556060781 0
1.491072383179568 0.8569765762198848 0
1.475196187909281 0.793521894572216 0
0.5316712568782667 0.8700240073364394 0
0.477966385054798 0.8944628841435942 0
0.563662603591332 0.3633653304464521 0
0.9108080181474767 0.2610475271008061 0
0.8958113989111189 0.1960833076230762 0
0.8341840965380518 0.1664819401151751 0
0.6449144538895106 0.8772665757422408 0
1.432971289474879 0.8980144488831366 0
1.677356581552199 0.6552530590496004 0
0.899460102694955 0.1203861273535659 0
0.9525676307503428 0.1574312714710784 0
0.8335470255236768 0.1045055612302661 0
0.771320263380892 0.1262924737993177 0
1.26389882979968 0.9153462892467688 0
0.6195559390634279 0.3905423402282402 0
2.129905158597167 0.08662588015721451 0
2.185302372094152 0.626169834784343 0
2.249044369463046 0.6019747171050264 0
2.264850155313187 0.5374721308614394 0
2.220255626605145 0.4850960223983238 0
2.173379519296863 0.4355713309065191 0
1.497037864490968 0.1413823431717564 0
1.561615556234852 0.1272842896742021 0
1.434704745797201 0.16045133274364 0
1.737453309950123 0.08046215006895252 0
0.7780794020984068 0.7304857470909272 0
0.7680292209218339 0.8805320953542419 0
0.8288029315472631 0.8446069622817777 0
0.8312522783489836 0.9001379697028612 0
1.66018738184278 0.4487647263001908 0
1.010531053850936 0.9277062078753289 0
1.270085321913176 0.7270705651434695 0
2.068335317080184 0.8600824139713986 0
2.137112444659612 0.8615994962030494 0
0.7184316048821253 0.6862272146340527 0
0.9103445650838665 0.7780121524880798 0
1.161253872510892 0.5874652915671108 0
1.864256166615257 0.8652260570875574 0
0.841815101339915 0.7735108075627628 0
2.70857753352423 0.2973177899584418 0
2.020418483413934 0.1242342285129276 0
2.64218641200644 0.1086112123313576 0
2.392272947957505 0.135275960536364 0
2.34104859646948 0.07003810311120873 0
2.325917195080251 0.1471406966662915 0
2.276463114298761 0.09925968626617099 0
2.264318148654173 0.1645374119811724 0
2.48618507478122 0.06889614999876364 0
1.994518643039735 0.2596610450919627 0
0.4133821900787796 0.1161737670167686 0
0.4805568084546892 0.08447963421977556 0
0.5389709328282187 0.1227709672701848 0
1.822155033140258 0.804840366217055 0
1.798527509443398 0.8752488508591568 0
1.777651254156277 0.9425816988929828 0
1.732709868462378 0.8907817390291639 0
2.56286577398984 0.3928911585924602 0
2.587239484331262 0.4555256916443493 0
2.649865399862289 0.4631467769184867 0
2.611221423411222 0.51775263497075 0
2.682653438845622 0.5272931252077916 0
2.636253432831802 0.5807637114658539 0
2.739118264909182 0.3602596809682898 0
2.624389601753587 0.9398230676343878 0
2.590138042765464 0.8794493205510707 0
2.52109071104699 0.8792413054122495 0
2.556075747535303 0.8197099697299759 0
2.624663206418882 0.8198851427647836 0
2.590792356759511 0.7606718602844622 0
2.485901644824729 0.8273914323602062 0
2.660644224003285 0.761501639781469 0
2.625540709946015 0.702161899491154 0
2.693014237387494 0.7023393733941553 0
2.692883197257824 0.8198916936234517 0
2.557467308629665 0.7014502775833675 0
2.595883717240979 0.6373072026469889 0
2.450568233264715 0.8836651146207533 0
0.1746281650108159 0.9386288080459281 0
0.209226201819332 0.8809382115279386 0
0.287095327382352 0.87477289717271 0
0.3155377840314229 0.9418890346237342 0
0.1447588803732434 0.8731821755364548 0
0.179785583009398 0.8211984063972357 0
0.1800675120899418 0.2624248406652765 0
0.1198558364445816 0.2193076182908991 0
2.569725887320571 0.5717030412486369 0
0.6807357521777369 0.3549009447487119 0
2.07062486876018 0.0635006355277743 0
1.959016922187299 0.1138153100585062 0
1.430307498878748 0.05863822186484779 0
0.474614075445142 0.7014970751017737 0
0.66045096228619 0.07242445010799425 0
2.137462062129107 0.9348604024980354 0
2.658530189309519 0.8798631148454098 0
2.496322378729783 0.3828172654035779 0
0.4151056289580997 0.6677486638801964 0
1.01412448200676 0.06584820303301964 0
1.087339592599391 0.05935852542254061 0
1.120775851668832 0.1234050905881581 0
2.345099828382822 0.9408438610612968 0
2.380500122474406 0.8843680565878638 0
2.275491527638062 0.9413301943915241 0
2.247858343332811 0.8829558384216024 0
1.996486166418972 0.9443906761013947 0
1.923297496213815 0.9298874075736859 0
1.295172758697429 0.06052203598444389 0
1.22677045045983 0.06079994784534415 0
0.296836267406996 0.5326642635269184 0
2.485410108459138 0.940316328538626 0
0.1212916325729274 0.5628065969033846 0
0.1223578372719372 0.3642361218226297 0
2.511880195912366 0.7608200836770427 0
2.441090037875139 0.7355095122853845 0
0.4142805443039962 0.5332471959714317 0
2.734402883432602 0.8880541087011302 0
1.216902796621537 0.2916719884385661 0
2.65947987548457 0.6439578044262544 0
2.745276220959845 0.4989932986457422 0
2.31900395631608 0.4153996838021505 0
1.421184502557452 0.2197679596461227 0
2.742375725638579 0.5658431468950178 0
1.677177525050994 0.3446078881904711 0
0.2388577724772731 0.2962812925962148 0
2.538547543781188 0.3301636455183901 0
2.526664784051697 0.6249707243105953 0
1.593991165901429 0.5898764976866286 0
1.091895879816175 0.58212303199173 0
0.05679258760087769 0.766923082198575 0
0.1197189703069854 0.7337515852033467 0
2.736265690584921 0.1718054726024387 0
0.297265517329967 0.4654330546978063 0
2.370743838629933 0.5391248502148019 0
1.505211437221645 0.3172543287730379 0
2.544854981736099 0.5084859710082666 0
0.3548598301596264 0.1596435657951386 0
0.414462506801921 0.3309630525522149 0
1.021912975674125 0.7428617918208174 0
1.521914660759459 0.7428515156123813 0
0.6479608420516528 0.600610656773652 0
2.537744784366806 0.1534653300150448 0
0.296490468533839 0.5998287626119757 0
0.2959371735024763 0.8033162796713218 0
0.4128721898464719 0.8800636931006098 0
1.087427472395635 0.9376679163478121 0
0.5901675319420396 0.8356963443302877 0
0.4748146378251804 0.2966215251635062 0
2.379896747175178 0.2464264144983077 0
0.5433583617444215 0.2278355994176848 0
0.7784092499374009 0.2044072938759043 0
1.607474527585386 0.1800437467985222 0
2.051790410619925 0.6818013885389332 0
2.176128473444089 0.2166101191063409 0
0.6696283563050249 0.9417546405363952 0
1.577113326859831 0.9401087041654546 0
1.578220639651443 0.06072629616216468 0
0.5319464784190748 0.6003450321960493 0
0.473801538732092 0.6340938414340674 0
0.3557237117734495 0.566533070245663 0
0.4146450303873757 0.6003712254676102 0
0.7170547335128248 0.1768127368679859 0
2.000595691100653 0.8618317803788025 0
0.05662214021147971 0.4333333333333347 0
0.1226534546385829 0.4956512360588966 0
0.05666264249251252 0.3666666666666679 0
0.3149999999999995 0.05889673557088865 0
0.05709974512157157 0.5692342475865403 0
0.05627236625927345 0.6355346537952247 0
0.1224392585357343 0.2942333294576758 0
0.1771717970322275 0.06565850789380434 0
0.5914340978875769 0.6341063031961675 0
2.224418650621439 0.8196200145537048 0
0.05707615040264757 0.2363301289897802 0
0.1813603285991392 0.7313975072819081 0
1.193949768510515 0.1195905038988281 0
1.379059756181231 0.8699443356883394 0
0.1229548546750323 0.1596009394671098 0
2.240979622587873 0.2248792147212799 0
0.114258812885679 0.8071020746656441 0
1.110797620526685 0.3658388722533073 0
1.16958217843496 0.381045031027541 0
2.745649652051656 0.1012923701953982 0
0.06635782185045236 0.1054912394591588 0
0.05012746547540226 0.8971493902030686 0
1.885222319573817 0.1706156551650785 0
2.133231725633511 0.7495034225721875 0
0.7384903700014314 0.6217953315934864 0
1.419848386692264 0.8273200772289215 0
2.285639530457187 0.475039262540653 0
1.848705667906788 0.1249216092207275 0
0.8692282249659298 0.05619267039253795 0
0.5297763397091029 0.9421358427518807 0
1.926742731411478 0.05521313514439752 0
1.19490495318279 0.7179286860295787 0
1.401095087546966 0.7610108009573844 0
0.5329055482565807 0.05357447595097414 0
1.20105581553513 0.8970512928743172 0
1.130755693703745 0.8836954383546786 0
2.312755428484053 0.885071864207722 0
1.003071167959028 0.1897518852018966 0
1.012890382474304 0.1261863121706741 0
1.982915662296414 0.1803228300001488 0
0.8666901951483612 0.9453189792367062 0
0.6006351004669808 0.1217343741971625 0
1.630895731621002 0.8806408800806758 0
1.625620359310937 0.1194161857863705 0
2.682293900310782 0.238692062262319 0
2.288199573629578 0.6524808316437647 0
0.708681935491051 0.1161703757453781 0
1.79346244617979 0.05573598268500518 0
2.688867929972911 0.4077626042375893 0
1.868597425899385 0.7531830701057053 0
0.5829226437097433 0.4373862768044438 0
1.226428093665552 0.2304123669902591 0
1.763053257492457 0.2827518715805139 0
2.752860580870372 0.7011940336393543 0
2.163350246012754 0.8127271936135676 0
2.173917280935225 0.6923702444389467 0
2.623070461067779 0.05321097981962786 0
2.223885226388031 0.1182777377178804 0
0.2424977215857214 0.8291104302738195 0
1.331128479606022 0.7610176783215244 0
1.711234170756097 0.9462480155758894 0
2.692229928900592 0.5960554197661196 0
0.6721908331013369 0.412969823215863 0
1.748857541490069 0.832104556411 0
1.692466753812348 0.7151192345021762 0
0.8914004311689934 0.8831018895739533 0
1.735616154152738 0.3511423673650563 0
1.738473811420718 0.6544800566741193 0
1.330122221170182 0.1055406026727035 0
2.354395109838444 0.8317513493224471 0
1.390243576079337 0.1185240263072378 0
2.751928948251364 0.8274017491766978 0
0.5235469619977187 0.4047540785394212 0
2.186747978223176 0.379145355985111 0
1.214451526203526 0.9511772119246005 0
0.7978044664710096 0.05569812207659247 0
2.365228590227795 0.1914732419084332 0
1.715905109395288 0.7763318605871177 0
1.665218367092509 0.1743129332008524 0
1.709790886858133 0.2257454752689031 0
0.34978404124134 0.8952879310772799 0
0.7950882743038199 0.9462008526661927 0
2.586185543273643 0.1071585322240132 0
0.3510950919517988 0.1024597646671356 0
1.165613340010527 0.6416864131070898 0
0.9485766538884085 0.2125671007769422 0
1.466206663904166 0.2623675170227707 0
1.134816710960445 0.5344435053073927 0
1.309694760249074 0.9478622455205677 0
0.7053737330620405 0.8943735870049367 0
2.695143053771601 0.1244033472441186 0
2.417792686276476 0.835376791729846 0
2.185679251425883 0.8877254498207015 0
1.166408638555793 0.4830782558810541 0
1.142703524557504 0.4270919855198615 0
2.274999999999999 0.04282468933488748 0
1.683734771593449 0.1002290350064632 0
1.232012633505405 0.173678755598313 0
2.748231363617148 0.9490595984646717 0
2.205243233333226 0.1638091358140089 0
1.652725377754284 0.3973789010549649 0
1.900407700137764 0.1077603390955891 0
0.4371074022067346 0.05144665613599181 0
0.4421264390815184 0.9473509670133085 0
2.753917263785731 0.04583577966332802 0
0.0489486213578072 0.9510621889792492 0
0.0504323375755229 0.04953728778763267 0
0.8834651437245427 0.7301444923714938 0
2.31835964558968 0.524104239372951 0
1.435227380394258 0.9576506981755222 0
1.652066251978405 0.6100376664577044 0
0.1052454432706678 0.6787290849469304 0
1.059835701094638 0.1075010202328419 0
0.1296941660391584 0.1030715234994136 0
1.454365890338827 0.1093892723067593 0
0.8814421558789494 0.8242794225582872 0
0.8947344289422897 0.314770485408951 0
2.024297700002072 0.6334673935160127 0
0.7429140018664445 0.3608339493998551 0
0.5127920538658094 0.3314407810435335 0
0.5249554375365819 0.1782497842478821 0
2.703774141655416 0.4665206756738307 0
0.6885258590517397 0.6312866574321518 0
1.679428787978214 0.9006743755587707 0
1.209688027481369 0.3412038315000498 0
1.080390058683781 0.5272926020015695 0
1.593833829646538 0.5245816246309557 0
0.2278274424460076 0.1091771503246674 0
0.5833903549414928 0.8890256179011318 0
1.218397862831705 0.4837375502426339 0
2.100960316112353 0.7051747292282768 0
0.9551034996976807 0.888787937231952 0
1.454035326415065 0.3232801618295487 0
1.392781142124442 0.682843584295632 0
0.9651176119795908 0.1077497064759153 0
1.953978824228972 0.3238433645761642 0
0.8864344271865573 0.6825727337345278 0
2.099191246905785 0.8996118623355206 0
2.760767955093962 0.3003855493298455 0
0.9719785020833883 0.743709734156065 0
1.46820386361663 0.7408655421674371 0
1.696640749708947 0.04825405580459302 0
0.7011347822112137 0.4509841260880311 0
2.046711967926598 0.3022003984579342 0
2.032921140012746 0.9009204329902938 0
1.384982015289876 0.1778119790024408 0
2.525662175475971 0.1011614303423773 0
1.656157157178698 0.5089710597114128 0
2.134999999999999 0.03639212964121924 0
2.233583678875545 0.6512152909648007 0
1.935080473120267 0.1604739521153131 0
1.086670782710965 0.3197722242624647 0
2.179248006637771 0.1113389322702912 0
0.5104428115369108 0.262976046377536 0
0.1584402972423882 0.7745592541622407 0
0.09322119452874489 0.868725760991248 0
1.967594467240212 0.8984255486892609 0
2.448985491907234 0.7895144397215491 0
1.573783102696565 0.467886506727153 0
1.072621585387676 0.4681801256269286 0
1.702575555328466 0.5403248271318191 0
2.147862993366345 0.5454437616403951 0
1.239316631890142 0.42582046788901 0
2.100361207087961 0.5022870232404091 0
1.254323049612583 0.629658112595565 0
$EndNodes
$Elements
8 1538 1 1538
1 5 1 13
1 1 8 
2 8 9 
3 9 10 
4 10 11 
5 11 12 
6 12 13 
7 13 14 
8 14 15 
9 15 16 
10 16 17 
11 17 18 
12 18 19 
13 19 1 
1 6 1 13
14 2 20 
15 20 21 
16 21 22 
17 22 23 
18 23 24 
19 24 25 
20 25 26 
21 26 27 
22 27 28 
23 28 29 
24 29 30 
25 30 31 
26 31 2 
1 7 1 13
27 3 32 
28 32 33 
29 33 34 
30 34 35 
31 35 36 
32 36 37 
33 37 38 
34 38 39 
35 39 40 
36 40 41 
37 41 42 
38 42 43 
39 43 3 
1 8 1 40
40 4 44 
41 44 45 
42 45 46 
43 46 47 
44 47 48 
45 48 49 
46 49 50 
47 50 51 
48 51 52 
49 52 53 
50 53 54 
51 54 55 
52 55 56 
53 56 57 
54 57 58 
55 58 59 
56 59 60 
57 60 61 
58 61 62 
59 62 63 
60 63 64 
61 64 65 
62 65 66 
63 66 67 
64 67 68 
65 68 69 
66 69 70 
67 70 71 
68 71 72 
69 72 73 
70 73 74 
71 74 75 
72 75 76 
73 76 77 
74 77 78 
75 78 79 
76 79 80 
77 80 81 
78 81 82 
79 82 5 
1 9 1 15
80 6 83 
81 83 84 
82 84 85 
83 85 86 
84 86 87 
85 87 88 
86 88 89 
87 89 90 
88 90 91 
89 91 92 
90 92 93 
91 93 94 
92 94 95 
93 95 96 
94 96 4 
1 10 1 15
95 5 97 
96 97 98 
97 98 99 
98 99 100 
99 100 101 
100 101 102 
101 102 103 
102 103 104 
103 104 105 
104 105 106 
105 106 107 
106 107 108 
107 108 109 
108 109 110 
109 110 7 
1 11 1 40
110 7 111 
111 111 112 
112 112 113 
113 113 114 
114 114 115 
115 115 116 
116 116 117 
117 117 118 
118 118 119 
119 119 120 
120 120 121 
121 121 122 
122 122 123 
123 123 124 
124 124 125 
125 125 126 
126 126 127 
127 127 128 
128 128 129 
129 129 130 
130 130 131 
131 131 132 
132 132 133 
133 133 134 
134 134 135 
135 135 136 
136 136 137 
137 137 138 
138 138 139 
139 139 140 
140 140 141 
141 141 142 
142 142 143 
143 143 144 
144 144 145 
145 145 146 
146 146 147 
147 147 148 
148 148 149 
149 149 6 
2 1 2 1389
150 220 222 10 
151 208 210 22 
152 215 216 175 
153 294 414 29 
154 293 308 41 
155 170 230 228 
156 288 291 179 
157 177 289 288 
158 177 592 290 
159 490 738 308 
160 571 647 403 
161 215 445 217 
162 394 546 479 
163 431 471 373 
164 165 647 571 
165 603 604 151 
166 258 488 486 
167 420 604 603 
168 479 546 194 
169 354 476 356 
170 296 414 294 
171 160 613 609 
172 461 462 321 
173 609 613 526 
174 424 608 607 
175 424 607 551 
176 38 431 373 
177 21 208 22 
178 9 220 10 
179 40 293 41 
180 18 215 175 
181 28 294 29 
182 192 691 433 
183 170 228 43 
184 35 288 179 
185 177 288 34 
186 296 561 414 
187 603 605 420 
188 230 462 228 
189 396 644 533 
190 420 605 552 
191 151 604 551 
192 551 607 151 
193 323 540 395 
194 194 495 479 
195 110 556 109 
196 412 615 548 
197 12 627 13 
198 514 558 153 
199 433 616 192 
200 655 682 398 
201 13 627 266 
202 570 714 338 
203 194 496 495 
204 77 485 76 
205 157 489 430 
206 516 553 253 
207 338 614 570 
208 430 484 157 
209 329 655 398 
210 552 605 160 
211 427 738 490 
212 160 609 552 
213 310 490 308 
214 363 459 458 
215 228 462 229 
216 182 473 423 
217 412 548 547 
218 187 464 463 
219 186 440 439 
220 449 628 440 
221 181 727 557 
222 363 458 322 
223 224 687 634 
224 553 554 253 
225 110 701 556 
226 512 514 191 
227 325 727 181 
228 143 706 632 
229 634 687 423 
230 632 706 443 
231 643 684 470 
232 399 650 630 
233 138 684 643 
234 251 554 255 
235 400 476 354 
236 533 644 162 
237 50 636 492 
238 426 473 182 
239 136 472 135 
240 521 583 402 
241 612 695 657 
242 492 705 50 
243 482 529 381 
244 486 679 258 
245 321 629 461 
246 196 678 454 
247 426 736 635 
248 450 670 667 
249 425 467 172 
250 200 617 526 
251 526 613 200 
252 667 670 408 
253 356 476 467 
254 187 596 464 
255 290 592 364 
256 439 595 186 
257 200 623 617 
258 178 655 293 
259 729 750 432 
260 253 566 516 
261 293 655 329 
262 485 698 76 
263 177 720 592 
264 448 594 163 
265 631 678 55 
266 191 515 512 
267 215 719 445 
268 623 716 617 
269 540 615 395 
270 184 472 136 
271 324 540 323 
272 201 471 314 
273 459 460 259 
274 494 666 409 
275 635 662 426 
276 425 480 467 
277 445 688 217 
278 473 634 423 
279 258 618 488 
280 567 729 432 
281 657 695 475 
282 495 666 494 
283 630 650 195 
284 79 489 78 
285 493 636 162 
286 163 731 448 
287 373 703 563 
288 157 485 77 
289 153 656 514 
290 372 723 493 
291 181 557 295 
292 451 631 183 
293 450 713 374 
294 426 662 473 
295 162 644 493 
296 314 750 729 
297 180 529 482 
298 493 644 372 
299 253 554 251 
300 402 683 521 
301 533 649 396 
302 456 653 444 
303 453 678 631 
304 186 449 440 
305 183 737 451 
306 516 566 517 
307 439 645 595 
308 523 619 524 
309 255 554 298 
310 517 527 503 
311 524 757 343 
312 440 628 441 
313 653 675 444 
314 192 616 449 
315 229 461 363 
316 454 678 453 
317 467 476 172 
318 455 691 132 
319 190 606 438 
320 616 628 449 
321 381 529 457 
322 558 664 153 
323 132 677 455 
324 472 585 135 
325 433 691 455 
326 408 680 667 
327 268 653 456 
328 423 687 375 
329 462 676 321 
330 412 700 615 
331 595 645 166 
332 454 649 196 
333 409 680 408 
334 523 758 619 
335 563 669 373 
336 229 462 461 
337 373 669 39 
338 188 489 79 
339 36 670 374 
340 39 669 178 
341 78 489 157 
342 374 670 450 
343 161 698 487 
344 179 670 36 
345 514 656 191 
346 291 494 409 
347 456 665 268 
348 223 568 478 
349 150 504 102 
350 559 562 502 
351 487 660 161 
352 343 757 614 
353 635 736 210 
354 517 566 527 
355 503 558 517 
356 449 712 192 
357 291 408 179 
358 170 231 230 
359 375 687 478 
360 374 713 432 
361 177 290 289 
362 215 217 216 
363 528 721 397 
364 293 309 308 
365 655 669 407 
366 637 638 385 
367 438 730 190 
368 343 661 524 
369 635 743 441 
370 407 669 563 
371 363 460 459 
372 397 665 528 
373 68 650 466 
374 460 711 259 
375 628 635 441 
376 471 703 373 
377 398 682 404 
378 404 682 681 
379 102 504 101 
380 467 480 419 
381 419 480 469 
382 487 698 485 
383 468 684 197 
384 646 699 681 
385 158 542 518 
386 482 530 180 
387 201 703 471 
388 167 646 596 
389 463 717 187 
390 378 666 497 
391 584 706 156 
392 596 646 464 
393 124 496 194 
394 544 695 612 
395 407 682 655 
396 353 611 400 
397 291 652 494 
398 125 496 124 
399 466 744 68 
400 278 722 675 
401 416 621 325 
402 562 664 502 
403 553 760 554 
404 259 648 459 
405 466 650 399 
406 668 734 184 
407 518 550 158 
408 457 751 161 
409 496 497 495 
410 245 575 248 
411 135 585 134 
412 643 668 184 
413 505 535 328 
414 527 566 248 
415 461 629 460 
416 511 760 553 
417 230 676 462 
418 475 695 534 
419 547 671 412 
420 498 499 254 
421 145 522 156 
422 363 461 460 
423 484 485 157 
424 293 329 309 
425 231 232 230 
426 248 575 527 
427 241 536 243 
428 443 706 584 
429 675 722 444 
430 535 556 328 
431 358 564 525 
432 185 506 505 
433 291 409 408 
434 217 218 216 
435 254 536 498 
436 227 697 315 
437 366 561 465 
438 309 310 308 
439 525 564 336 
440 169 638 637 
441 290 292 289 
442 146 522 145 
443 519 520 189 
444 523 524 520 
445 519 523 520 
446 185 505 113 
447 147 519 189 
448 243 536 254 
449 658 752 264 
450 555 600 599 
451 400 611 580 
452 60 548 168 
453 477 718 480 
454 392 523 519 
455 185 550 507 
456 161 755 457 
457 158 550 115 
458 507 550 518 
459 247 536 241 
460 164 544 543 
461 350 532 393 
462 58 539 538 
463 194 546 123 
464 254 575 245 
465 63 531 193 
466 196 533 53 
467 242 560 239 
468 510 512 509 
469 261 565 247 
470 198 534 120 
471 112 505 328 
472 303 528 305 
473 506 535 505 
474 541 542 158 
475 82 327 81 
476 112 328 111 
477 392 519 148 
478 57 538 183 
479 484 486 485 
480 45 391 44 
481 149 392 148 
482 358 525 422 
483 121 545 198 
484 532 598 393 
485 508 510 509 
486 508 509 506 
487 281 572 279 
488 525 526 422 
489 168 540 539 
490 116 541 158 
491 164 543 118 
492 185 507 506 
493 525 609 526 
494 510 553 516 
495 507 508 506 
496 513 514 512 
497 247 565 536 
498 510 513 512 
499 508 553 510 
500 549 572 281 
501 386 473 388 
502 499 575 254 
503 515 556 535 
504 134 585 169 
505 362 537 342 
506 347 532 350 
507 189 522 146 
508 382 383 320 
509 436 578 368 
510 520 521 189 
511 352 560 242 
512 80 188 79 
513 441 579 377 
514 356 467 419 
515 353 400 354 
516 237 321 235 
517 350 353 351 
518 319 320 261 
519 390 417 219 
520 285 564 358 
521 122 546 545 
522 187 531 64 
523 193 547 62 
524 168 539 59 
525 72 529 180 
526 239 560 237 
527 547 548 61 
528 52 533 162 
529 282 287 286 
530 150 651 504 
531 345 537 532 
532 424 551 334 
533 114 185 113 
534 350 393 353 
535 147 189 146 
536 47 190 46 
537 316 456 444 
538 383 384 320 
539 119 534 164 
540 383 405 384 
541 342 537 345 
542 305 528 316 
543 512 515 509 
544 72 180 71 
545 57 183 56 
546 137 184 136 
547 218 219 216 
548 481 504 405 
549 116 158 115 
550 358 422 421 
551 117 543 541 
552 58 538 57 
553 121 198 120 
554 353 354 351 
555 122 545 121 
556 437 477 436 
557 240 241 239 
558 127 166 126 
559 67 167 66 
560 129 186 128 
561 65 187 64 
562 54 196 53 
563 140 197 139 
564 70 195 69 
565 124 194 123 
566 131 192 130 
567 63 193 62 
568 238 239 237 
569 61 548 60 
570 60 168 59 
571 134 169 133 
572 142 163 141 
573 52 162 51 
574 78 157 77 
575 347 350 349 
576 287 300 286 
577 246 573 244 
578 75 161 74 
579 117 541 116 
580 334 551 332 
581 486 488 487 
582 287 330 300 
583 516 517 513 
584 345 532 347 
585 113 505 112 
586 330 420 300 
587 507 511 508 
588 148 519 147 
589 383 481 405 
590 428 436 368 
591 517 558 513 
592 145 156 144 
593 49 155 48 
594 350 351 349 
595 119 164 118 
596 405 406 384 
597 243 254 245 
598 319 382 320 
599 338 424 334 
600 241 242 239 
601 236 237 235 
602 440 441 377 
603 316 528 456 
604 316 444 415 
605 390 557 417 
606 59 539 58 
607 123 546 122 
608 53 533 52 
609 64 531 63 
610 62 547 61 
611 320 565 261 
612 120 534 119 
613 155 705 491 
614 114 550 185 
615 513 558 514 
616 482 642 530 
617 241 243 242 
618 73 529 72 
619 282 286 283 
620 240 247 241 
621 279 572 282 
622 305 316 313 
623 500 502 501 
624 252 259 250 
625 118 543 117 
626 263 264 256 
627 359 587 577 
628 406 500 499 
629 340 362 342 
630 511 553 508 
631 276 281 279 
632 536 565 498 
633 244 573 352 
634 285 358 357 
635 276 555 281 
636 577 587 278 
637 279 282 280 
638 273 555 276 
639 486 487 485 
640 237 560 321 
641 234 235 232 
642 204 563 202 
643 510 516 513 
644 238 240 239 
645 257 490 380 
646 407 563 204 
647 115 550 114 
648 420 552 300 
649 388 434 433 
650 479 494 326 
651 331 332 330 
652 386 388 387 
653 290 364 317 
654 340 582 362 
655 287 331 330 
656 236 238 237 
657 555 599 281 
658 231 233 232 
659 292 326 289 
660 316 415 313 
661 300 336 286 
662 13 154 14 
663 599 600 362 
664 500 501 499 
665 276 279 277 
666 37 431 38 
667 263 265 264 
668 428 437 436 
669 300 552 336 
670 243 245 244 
671 502 503 501 
672 384 565 320 
673 90 151 89 
674 103 150 102 
675 406 498 384 
676 273 276 275 
677 354 356 355 
678 245 248 246 
679 250 573 246 
680 498 565 384 
681 375 435 25 
682 406 499 498 
683 106 153 105 
684 206 407 204 
685 226 386 385 
686 290 317 292 
687 105 562 104 
688 211 450 212 
689 36 374 37 
690 38 373 39 
691 24 375 25 
692 173 223 221 
693 176 211 209 
694 323 390 219 
695 127 595 166 
696 186 595 128 
697 167 596 66 
698 104 559 103 
699 140 594 197 
700 65 596 187 
701 260 261 247 
702 173 568 223 
703 333 334 332 
704 234 236 235 
705 176 567 211 
706 347 349 348 
707 174 201 31 
708 356 419 418 
709 175 227 19 
710 375 478 435 
711 163 594 141 
712 103 559 150 
713 153 562 105 
714 249 253 251 
715 30 174 31 
716 20 176 21 
717 8 173 9 
718 18 175 19 
719 271 273 272 
720 243 244 242 
721 104 562 559 
722 360 369 359 
723 419 469 468 
724 521 522 189 
725 329 371 309 
726 358 421 357 
727 266 267 154 
728 509 535 506 
729 287 572 331 
730 345 347 346 
731 318 319 261 
732 401 403 382 
733 282 572 287 
734 271 272 269 
735 492 493 370 
736 8 568 173 
737 331 333 332 
738 20 567 176 
739 422 429 421 
740 282 283 280 
741 271 274 273 
742 174 202 201 
743 244 352 242 
744 458 752 658 
745 251 252 250 
746 249 566 253 
747 470 684 468 
748 354 355 351 
749 267 269 268 
750 342 345 344 
751 270 271 269 
752 507 518 511 
753 249 250 246 
754 3 152 32 
755 331 572 549 
756 13 266 154 
757 479 495 494 
758 267 268 154 
759 255 256 252 
760 274 555 273 
761 231 257 233 
762 447 454 453 
763 331 549 333 
764 340 342 341 
765 27 325 181 
766 267 270 269 
767 276 277 275 
768 273 275 272 
769 311 359 284 
770 279 280 277 
771 305 313 312 
772 245 246 244 
773 503 527 501 
774 335 338 334 
775 249 251 250 
776 248 566 249 
777 306 445 301 
778 259 573 250 
779 262 263 256 
780 233 234 232 
781 388 433 387 
782 11 172 12 
783 15 171 16 
784 364 389 317 
785 451 452 446 
786 248 249 246 
787 14 397 15 
788 42 170 43 
789 329 398 371 
790 35 179 36 
791 39 178 40 
792 218 323 219 
793 283 564 285 
794 23 182 24 
795 27 181 28 
796 240 260 247 
797 349 442 348 
798 386 387 385 
799 286 564 283 
800 93 160 92 
801 87 159 86 
802 211 212 209 
803 17 215 18 
804 223 224 221 
805 100 165 99 
806 43 228 3 
807 360 370 369 
808 255 298 262 
809 347 348 346 
810 33 177 34 
811 108 191 107 
812 251 255 252 
813 322 458 410 
814 501 575 499 
815 203 207 205 
816 176 208 21 
817 379 428 368 
818 303 305 304 
819 356 418 355 
820 319 401 382 
821 345 346 344 
822 173 220 9 
823 47 606 190 
824 439 440 377 
825 311 360 359 
826 171 303 302 
827 255 262 256 
828 207 366 365 
829 367 368 225 
830 323 395 390 
831 376 377 213 
832 257 380 299 
833 447 590 454 
834 381 413 299 
835 398 404 399 
836 366 465 463 
837 419 468 418 
838 99 571 98 
839 333 335 334 
840 86 569 85 
841 335 340 339 
842 342 344 341 
843 236 258 238 
844 393 598 597 
845 277 278 275 
846 336 564 286 
847 515 535 509 
848 174 203 202 
849 341 343 339 
850 262 337 263 
851 313 372 312 
852 283 285 284 
853 266 580 267 
854 34 288 35 
855 380 482 381 
856 346 402 344 
857 30 574 174 
858 469 470 468 
859 340 341 339 
860 551 604 332 
861 260 318 261 
862 360 491 370 
863 285 357 311 
864 233 593 234 
865 152 307 32 
866 544 612 337 
867 359 577 284 
868 155 606 48 
869 45 610 391 
870 389 475 474 
871 491 492 370 
872 305 312 304 
873 442 443 348 
874 85 199 84 
875 95 200 94 
876 394 479 326 
877 283 284 280 
878 257 299 233 
879 267 580 270 
880 152 322 307 
881 372 396 312 
882 306 446 445 
883 322 410 307 
884 176 209 208 
885 11 425 172 
886 349 586 442 
887 351 586 349 
888 178 293 40 
889 173 221 220 
890 203 204 202 
891 527 575 501 
892 318 581 319 
893 330 604 420 
894 285 311 284 
895 23 426 182 
896 389 474 317 
897 171 301 16 
898 292 394 326 
899 355 586 351 
900 381 457 413 
901 335 339 338 
902 421 438 357 
903 380 381 299 
904 212 214 213 
905 418 448 355 
906 463 464 365 
907 224 226 225 
908 369 587 359 
909 205 206 204 
910 214 378 376 
911 181 294 28 
912 42 427 170 
913 226 385 367 
914 207 365 205 
915 379 472 428 
916 398 399 371 
917 367 379 368 
918 168 615 540 
919 401 483 403 
920 218 324 323 
921 376 439 377 
922 433 455 387 
923 404 466 399 
924 432 713 567 
925 306 447 446 
926 212 213 209 
927 361 484 430 
928 224 225 221 
929 299 593 233 
930 260 361 318 
931 303 304 302 
932 238 588 240 
933 366 463 365 
934 549 582 333 
935 295 297 296 
936 361 430 318 
937 297 412 411 
938 481 647 165 
939 447 453 451 
940 447 451 446 
941 203 205 204 
942 313 589 372 
943 295 296 294 
944 214 376 213 
945 319 581 401 
946 297 411 296 
947 302 306 301 
948 226 367 225 
949 171 302 301 
950 181 295 294 
951 271 597 274 
952 415 589 313 
953 209 579 208 
954 221 578 220 
955 159 569 86 
956 165 571 99 
957 280 577 277 
958 203 574 207 
959 240 588 260 
960 497 726 378 
961 448 586 355 
962 368 578 225 
963 377 579 213 
964 410 592 307 
965 159 570 569 
966 335 582 340 
967 277 577 278 
968 258 588 238 
969 357 576 311 
970 393 611 353 
971 341 583 343 
972 379 585 472 
973 311 576 360 
974 174 574 203 
975 190 610 46 
976 360 576 491 
977 348 584 346 
978 90 603 151 
979 402 583 344 
980 344 583 341 
981 438 576 357 
982 346 584 402 
983 333 582 335 
984 284 577 280 
985 443 584 348 
986 430 581 318 
987 85 569 199 
988 225 578 221 
989 197 692 468 
990 213 579 209 
991 526 617 422 
992 260 588 361 
993 413 593 299 
994 281 599 549 
995 151 607 89 
996 362 600 537 
997 205 591 206 
998 582 599 362 
999 306 590 447 
1000 464 591 365 
1001 302 590 306 
1002 521 661 583 
1003 304 590 302 
1004 270 597 271 
1005 220 742 222 
1006 365 591 205 
1007 141 594 140 
1008 208 743 210 
1009 128 595 127 
1010 160 605 92 
1011 66 596 65 
1012 222 742 477 
1013 317 602 292 
1014 491 705 492 
1015 537 598 532 
1016 598 600 274 
1017 396 601 312 
1018 681 699 404 
1019 597 598 274 
1020 590 601 454 
1021 338 714 424 
1022 292 602 394 
1023 490 746 427 
1024 87 608 159 
1025 549 599 582 
1026 274 600 555 
1027 552 609 336 
1028 91 603 90 
1029 92 605 91 
1030 332 604 330 
1031 537 600 598 
1032 304 601 590 
1033 312 601 304 
1034 91 605 603 
1035 339 614 338 
1036 336 609 525 
1037 530 633 180 
1038 474 602 317 
1039 451 737 452 
1040 621 697 620 
1041 337 612 263 
1042 48 606 47 
1043 89 607 88 
1044 483 659 327 
1045 337 639 544 
1046 453 631 451 
1047 93 613 160 
1048 620 697 227 
1049 403 693 571 
1050 200 613 94 
1051 366 689 561 
1052 607 608 88 
1053 534 740 475 
1054 88 608 87 
1055 310 642 490 
1056 560 629 321 
1057 363 764 229 
1058 270 611 597 
1059 236 618 258 
1060 314 761 201 
1061 315 762 227 
1062 386 634 473 
1063 556 674 109 
1064 432 763 374 
1065 325 765 416 
1066 229 766 228 
1067 375 767 423 
1068 322 764 363 
1069 180 633 71 
1070 70 633 195 
1071 289 652 288 
1072 98 622 97 
1073 84 624 83 
1074 96 623 95 
1075 33 720 177 
1076 593 618 234 
1077 597 611 393 
1078 56 631 55 
1079 143 632 142 
1080 17 719 215 
1081 423 767 182 
1082 184 734 472 
1083 480 718 469 
1084 548 615 168 
1085 704 753 625 
1086 476 627 172 
1087 46 610 45 
1088 570 619 569 
1089 263 612 265 
1090 580 611 270 
1091 224 634 226 
1092 94 613 93 
1093 541 639 542 
1094 288 652 291 
1095 7 701 110 
1096 111 701 7 
1097 544 639 543 
1098 434 616 433 
1099 51 636 50 
1100 442 632 443 
1101 343 614 339 
1102 561 689 414 
1103 196 649 533 
1104 422 617 429 
1105 629 711 460 
1106 223 687 224 
1107 399 630 371 
1108 518 694 511 
1109 387 637 385 
1110 327 659 81 
1111 234 618 236 
1112 589 723 372 
1113 138 643 137 
1114 186 712 449 
1115 165 741 481 
1116 490 642 380 
1117 557 654 295 
1118 469 668 470 
1119 385 638 367 
1120 383 647 481 
1121 556 701 328 
1122 379 638 585 
1123 264 648 256 
1124 80 659 188 
1125 216 754 175 
1126 403 647 382 
1127 502 664 503 
1128 125 663 496 
1129 442 731 632 
1130 252 648 259 
1131 504 651 405 
1132 492 636 493 
1133 473 662 388 
1134 295 654 297 
1135 406 651 500 
1136 69 650 68 
1137 531 673 193 
1138 585 638 169 
1139 296 748 561 
1140 521 683 522 
1141 166 663 126 
1142 569 619 199 
1143 265 658 264 
1144 217 640 218 
1145 175 620 227 
1146 411 748 296 
1147 269 653 268 
1148 571 622 98 
1149 496 663 497 
1150 395 654 390 
1151 95 623 200 
1152 199 624 84 
1153 376 645 439 
1154 106 656 153 
1155 156 683 584 
1156 477 742 436 
1157 392 758 523 
1158 364 626 389 
1159 309 625 310 
1160 191 656 107 
1161 431 750 471 
1162 471 750 314 
1163 172 627 12 
1164 210 743 635 
1165 414 735 29 
1166 408 670 179 
1167 480 710 477 
1168 321 676 235 
1169 190 730 610 
1170 222 739 10 
1171 524 661 520 
1172 210 736 22 
1173 371 625 309 
1174 308 738 41 
1175 5 707 82 
1176 6 708 149 
1177 44 709 4 
1178 491 686 155 
1179 494 652 326 
1180 534 695 164 
1181 450 667 212 
1182 529 751 457 
1183 55 678 54 
1184 97 707 5 
1185 4 709 96 
1186 83 708 6 
1187 352 629 560 
1188 183 631 56 
1189 142 632 163 
1190 303 721 528 
1191 139 684 138 
1192 298 672 262 
1193 630 704 625 
1194 191 674 515 
1195 75 698 161 
1196 232 676 230 
1197 278 675 275 
1198 132 691 131 
1199 73 751 529 
1200 129 712 186 
1201 192 712 130 
1202 417 754 219 
1203 484 679 486 
1204 161 751 74 
1205 417 621 620 
1206 632 731 163 
1207 489 749 430 
1208 502 724 559 
1209 608 714 159 
1210 574 689 207 
1211 226 634 386 
1212 671 673 411 
1213 50 705 49 
1214 144 706 143 
1215 394 759 546 
1216 446 688 445 
1217 71 633 70 
1218 361 679 484 
1219 610 730 429 
1220 639 672 542 
1221 257 746 490 
1222 659 685 188 
1223 315 697 696 
1224 478 687 223 
1225 16 719 17 
1226 567 713 211 
1227 202 703 201 
1228 32 720 33 
1229 370 723 369 
1230 259 711 573 
1231 301 719 16 
1232 615 700 395 
1233 307 720 32 
1234 369 723 589 
1235 624 758 392 
1236 391 716 623 
1237 468 692 418 
1238 162 636 51 
1239 581 685 401 
1240 100 741 165 
1241 15 721 171 
1242 397 721 15 
1243 452 641 640 
1244 434 628 616 
1245 472 734 428 
1246 478 690 435 
1247 424 714 608 
1248 578 742 220 
1249 169 677 133 
1250 579 743 208 
1251 170 746 231 
1252 258 679 588 
1253 455 637 387 
1254 690 696 435 
1255 367 638 379 
1256 421 730 438 
1257 400 725 476 
1258 576 686 491 
1259 601 649 454 
1260 298 694 672 
1261 430 749 581 
1262 673 748 411 
1263 458 658 410 
1264 539 715 538 
1265 459 752 458 
1266 448 731 586 
1267 620 754 417 
1268 109 674 108 
1269 68 744 67 
1270 543 639 541 
1271 584 683 402 
1272 327 693 483 
1273 434 662 635 
1274 137 643 184 
1275 531 717 673 
1276 371 630 625 
1277 218 640 324 
1278 389 657 475 
1279 380 642 482 
1280 152 766 764 
1281 187 717 531 
1282 153 664 562 
1283 427 746 170 
1284 500 724 502 
1285 568 690 478 
1286 574 735 689 
1287 372 644 396 
1288 504 741 101 
1289 378 645 376 
1290 382 647 383 
1291 1 728 8 
1292 2 729 20 
1293 435 732 25 
1294 326 652 289 
1295 25 732 26 
1296 610 716 391 
1297 8 728 568 
1298 20 729 567 
1299 593 702 618 
1300 256 648 252 
1301 464 646 591 
1302 29 735 30 
1303 22 736 23 
1304 694 760 511 
1305 412 671 411 
1306 41 738 42 
1307 425 710 480 
1308 538 737 183 
1309 528 665 456 
1310 195 650 69 
1311 477 710 222 
1312 10 739 11 
1313 434 635 628 
1314 520 661 521 
1315 23 736 426 
1316 30 735 574 
1317 481 741 504 
1318 405 651 406 
1319 42 738 427 
1320 11 739 425 
1321 642 753 530 
1322 266 725 580 
1323 390 654 557 
1324 272 653 269 
1325 265 657 626 
1326 396 649 601 
1327 658 733 410 
1328 626 657 389 
1329 107 656 106 
1330 488 660 487 
1331 764 766 229 
1332 81 659 80 
1333 388 662 434 
1334 637 677 169 
1335 619 758 199 
1336 352 711 629 
1337 108 674 191 
1338 469 718 668 
1339 429 716 610 
1340 618 702 488 
1341 126 663 125 
1342 583 661 343 
1343 178 669 655 
1344 497 666 495 
1345 503 664 558 
1346 217 688 640 
1347 154 745 14 
1348 337 672 639 
1349 378 680 666 
1350 640 641 324 
1351 14 745 397 
1352 272 675 653 
1353 542 694 518 
1354 413 755 702 
1355 538 715 641 
1356 612 657 265 
1357 626 733 658 
1358 515 674 556 
1359 193 671 547 
1360 594 692 197 
1361 212 667 214 
1362 651 724 500 
1363 483 685 659 
1364 627 725 266 
1365 646 681 591 
1366 702 755 660 
1367 133 677 132 
1368 530 753 704 
1369 395 700 654 
1370 262 672 337 
1371 626 658 265 
1372 152 764 322 
1373 448 692 594 
1374 166 726 663 
1375 667 680 214 
1376 275 675 272 
1377 571 693 622 
1378 522 683 156 
1379 235 676 232 
1380 54 678 196 
1381 622 693 327 
1382 175 754 620 
1383 633 704 195 
1384 641 737 538 
1385 214 680 378 
1386 155 686 606 
1387 581 749 685 
1388 197 684 139 
1389 206 682 407 
1390 588 679 361 
1391 681 682 206 
1392 437 734 668 
1393 591 681 206 
1394 324 715 540 
1395 672 694 542 
1396 452 688 446 
1397 131 691 192 
1398 207 689 366 
1399 401 685 483 
1400 82 707 327 
1401 391 709 44 
1402 149 708 392 
1403 328 701 111 
1404 315 696 690 
1405 164 695 544 
1406 27 765 325 
1407 227 762 19 
1408 201 761 31 
1409 26 765 27 
1410 413 702 593 
1411 19 762 1 
1412 31 761 2 
1413 438 686 576 
1414 37 763 431 
1415 606 686 438 
1416 374 763 37 
1417 540 715 539 
1418 476 725 627 
1419 24 767 375 
1420 188 749 489 
1421 3 766 152 
1422 418 692 448 
1423 483 693 403 
1424 264 752 648 
1425 182 767 24 
1426 228 766 3 
1427 546 759 545 
1428 76 698 75 
1429 640 688 452 
1430 554 760 298 
1431 563 703 202 
1432 49 705 155 
1433 156 706 144 
1434 545 747 198 
1435 297 700 412 
1436 198 740 534 
1437 404 699 466 
1438 378 726 645 
1439 130 712 129 
1440 268 745 154 
1441 211 713 450 
1442 673 717 465 
1443 573 711 352 
1444 436 742 578 
1445 441 743 579 
1446 452 737 641 
1447 444 722 415 
1448 445 719 301 
1449 437 718 477 
1450 570 757 619 
1451 622 707 97 
1452 159 714 570 
1453 624 708 83 
1454 96 709 623 
1455 493 723 370 
1456 67 744 167 
1457 171 721 303 
1458 722 756 415 
1459 557 727 417 
1460 470 668 643 
1461 559 724 150 
1462 465 717 463 
1463 587 722 278 
1464 592 720 307 
1465 587 756 722 
1466 219 754 216 
1467 410 733 592 
1468 167 699 646 
1469 586 731 442 
1470 101 741 100 
1471 231 746 257 
1472 592 733 364 
1473 74 751 73 
1474 428 734 437 
1475 198 747 740 
1476 580 725 400 
1477 429 730 421 
1478 614 757 570 
1479 475 740 474 
1480 416 697 621 
1481 455 677 637 
1482 696 697 416 
1483 561 748 465 
1484 457 755 413 
1485 195 704 630 
1486 415 756 589 
1487 740 747 474 
1488 689 735 414 
1489 589 756 369 
1490 369 756 587 
1491 150 724 651 
1492 666 680 409 
1493 654 700 297 
1494 474 747 602 
1495 327 707 622 
1496 392 708 624 
1497 623 709 391 
1498 625 753 310 
1499 545 759 747 
1500 617 716 429 
1501 602 759 394 
1502 621 727 325 
1503 193 673 671 
1504 530 704 633 
1505 417 727 621 
1506 747 759 602 
1507 663 726 497 
1508 364 733 626 
1509 668 718 437 
1510 310 753 642 
1511 641 715 324 
1512 619 757 524 
1513 1 762 728 
1514 2 761 729 
1515 728 762 315 
1516 729 761 314 
1517 199 758 624 
1518 732 765 26 
1519 416 765 732 
1520 465 748 673 
1521 648 752 459 
1522 488 702 660 
1523 685 749 188 
1524 665 745 268 
1525 645 726 166 
1526 431 763 750 
1527 750 763 432 
1528 660 755 161 
1529 298 760 694 
1530 397 745 665 
1531 690 728 315 
1532 568 728 690 
1533 696 732 435 
1534 416 732 696 
1535 167 744 699 
1536 710 739 222 
1537 699 744 466 
1538 425 739 710 
$EndElements
