$MeshFormat
4.1 0 8
$EndMeshFormat
$PhysicalNames
4
1 1 "Gamma_D_hot"
1 2 "Gamma_D_cold"
1 3 "Gamma_N_insulated"
2 100 "Omega"
$EndPhysicalNames
$Entities
4 4 1 0
1 0 0 0 0 
2 2.8 0 0 0 
3 2.8 1 0 0 
4 0 1 0 0 
1 -1.000000000583867e-07 -1e-07 -1e-07 2.8000001 1e-07 1e-07 1 3 2 1 -2 
2 2.7999999 -9.999999994736442e-08 -1e-07 2.8000001 1.0000001 1e-07 1 2 2 2 -3 
3 -1.000000000583867e-07 0.9999999000000001 -1e-07 2.8000001 1.0000001 1e-07 1 3 2 3 -4 
4 -1e-07 -9.999999994736442e-08 -1e-07 1e-07 1.0000001 1e-07 1 1 2 4 -1 
1 -1.000000000583867e-07 -9.999999994736442e-08 -1e-07 2.8000001 1.0000001 1e-07 1 100 4 1 2 3 4 
$EndEntities
$Nodes
9 577 1 577
0 1 0 1
1
0 0 0
0 2 0 1
2
2.8 0 0
0 3 0 1
3
2.8 1 0
0 4 0 1
4
0 1 0
1 1 0 34
5
6
7
8
9
10
11
12
13
14
15
16
17
18
19
20
21
22
23
24
25
26
27
28
29
30
31
32
33
34
35
36
37
38
0.07999999999999995 0 0
0.1599999999999999 0 0
0.2399999999999999 0 0
0.3199999999999998 0 0
0.3999999999999997 0 0
0.4799999999999996 0 0
0.5599999999999996 0 0
0.6399999999999995 0 0
0.7199999999999994 0 0
0.7999999999999993 0 0
0.8799999999999992 0 0
0.959999999999999 0 0
1.039999999999999 0 0
1.119999999999999 0 0
1.199999999999998 0 0
1.279999999999998 0 0
1.359999999999998 0 0
1.439999999999998 0 0
1.519999999999998 0 0
1.599999999999998 0 0
1.679999999999998 0 0
1.759999999999998 0 0
1.839999999999998 0 0
1.919999999999998 0 0
1.999999999999998 0 0
2.079999999999998 0 0
2.159999999999998 0 0
2.239999999999998 0 0
2.319999999999998 0 0
2.399999999999999 0 0
2.479999999999999 0 0
2.559999999999999 0 0
2.639999999999999 0 0
2.719999999999999 0 0
1 2 0 12
39
40
41
42
43
44
45
46
47
48
49
50
2.8 0.07692307692307693 0
2.8 0.1538461538461539 0
2.8 0.2307692307692308 0
2.8 0.3076923076923077 0
2.8 0.3846153846153846 0
2.8 0.4615384615384615 0
2.8 0.5384615384615384 0
2.8 0.6153846153846154 0
2.8 0.6923076923076923 0
2.8 0.7692307692307692 0
2.8 0.8461538461538461 0
2.8 0.923076923076923 0
1 3 0 34
51
52
53
54
55
56
57
58
59
60
61
62
63
64
65
66
67
68
69
70
71
72
73
74
75
76
77
78
79
80
81
82
83
84
2.72 1 0
2.64 1 0
2.56 1 0
2.48 1 0
2.4 1 0
2.32 1 0
2.24 1 0
2.16 1 0
2.080000000000001 1 0
2 1 0
1.920000000000001 1 0
1.840000000000001 1 0
1.760000000000001 1 0
1.680000000000001 1 0
1.600000000000001 1 0
1.520000000000001 1 0
1.440000000000002 1 0
1.360000000000002 1 0
1.280000000000002 1 0
1.200000000000002 1 0
1.120000000000002 1 0
1.040000000000002 1 0
0.960000000000002 1 0
0.8800000000000021 1 0
0.800000000000002 1 0
0.720000000000002 1 0
0.6400000000000019 1 0
0.5600000000000018 1 0
0.4800000000000018 1 0
0.4000000000000012 1 0
0.3200000000000012 1 0
0.2400000000000011 1 0
0.160000000000001 1 0
0.08000000000000052 1 0
1 4 0 12
85
86
87
88
89
90
91
92
93
94
95
96
0 0.9230769230769231 0
0 0.8461538461538461 0
0 0.7692307692307693 0
0 0.6923076923076923 0
0 0.6153846153846154 0
0 0.5384615384615385 0
0 0.4615384615384616 0
0 0.3846153846153846 0
0 0.3076923076923077 0
0 0.2307692307692308 0
0 0.1538461538461539 0
0 0.07692307692307698 0
2 1 0 481
97
98
99
100
101
102
103
104
105
106
107
108
109
110
111
112
113
114
115
116
117
118
119
120
121
122
123
124
125
126
127
128
129
130
131
132
133
134
135
136
137
138
139
140
141
142
143
144
145
146
147
148
149
150
151
152
153
154
155
156
157
158
159
160
161
162
163
164
165
166
167
168
169
170
171
172
173
174
175
176
177
178
179
180
181
182
183
184
185
186
187
188
189
190
191
192
193
194
195
196
197
198
199
200
201
202
203
204
205
206
207
208
209
210
211
212
213
214
215
216
217
218
219
220
221
222
223
224
225
226
227
228
229
230
231
232
233
234
235
236
237
238
239
240
241
242
243
244
245
246
247
248
249
250
251
252
253
254
255
256
257
258
259
260
261
262
263
264
265
266
267
268
269
270
271
272
273
274
275
276
277
278
279
280
281
282
283
284
285
286
287
288
289
290
291
292
293
294
295
296
297
298
299
300
301
302
303
304
305
306
307
308
309
310
311
312
313
314
315
316
317
318
319
320
321
322
323
324
325
326
327
328
329
330
331
332
333
334
335
336
337
338
339
340
341
342
343
344
345
346
347
348
349
350
351
352
353
354
355
356
357
358
359
360
361
362
363
364
365
366
367
368
369
370
371
372
373
374
375
376
377
378
379
380
381
382
383
384
385
386
387
388
389
390
391
392
393
394
395
396
397
398
399
400
401
402
403
404
405
406
407
408
409
410
411
412
413
414
415
416
417
418
419
420
421
422
423
424
425
426
427
428
429
430
431
432
433
434
435
436
437
438
439
440
441
442
443
444
445
446
447
448
449
450
451
452
453
454
455
456
457
458
459
460
461
462
463
464
465
466
467
468
469
470
471
472
473
474
475
476
477
478
479
480
481
482
483
484
485
486
487
488
489
490
491
492
493
494
495
496
497
498
499
500
501
502
503
504
505
506
507
508
509
510
511
512
513
514
515
516
517
518
519
520
521
522
523
524
525
526
527
528
529
530
531
532
533
534
535
536
537
538
539
540
541
542
543
544
545
546
547
548
549
550
551
552
553
554
555
556
557
558
559
560
561
562
563
564
565
566
567
568
569
570
571
572
573
574
575
576
577
2.736204205975852 0.5010111052925398 0
0.06695656213149492 0.49922908347902 0
1.159999999999999 0.06928203230275476 0
1.638732687058449 0.9328749272986984 0
2.120056870278284 0.9307148156652449 0
0.8412419234108792 0.07707232663212493 0
1.879998824675861 0.0651200020109991 0
0.5988135945891522 0.9307875089215309 0
1.31867299597394 0.9314968701756265 0
0.9988004508565317 0.9312440056961608 0
1.479999999999998 0.06928203230275498 0
2.198279133818474 0.06210741326279118 0
0.5200998754434922 0.06489837962603673 0
1.88034883001849 0.9319533461728248 0
2.360389347056622 0.9308471657384088 0
2.441164917694453 0.06580196108394104 0
0.3594995961786867 0.9309399602485767 0
0.2800257559886477 0.06908762384545891 0
2.729996636149253 0.728999146536112 0
0.07109426585888201 0.7292058366093352 0
2.733382661247351 0.2692307692307692 0
0.06661733875264897 0.2692307692307693 0
2.520189804425023 0.930973454761443 0
0.6799999999999995 0.06928203230275498 0
1.001238454627795 0.07727810178191563 0
1.15867623277944 0.9313341993128664 0
1.478667513418275 0.9316588528823706 0
1.639999999999998 0.06497468025939168 0
1.319999999999999 0.06928203230275498 0
2.039999999999998 0.06519874345871396 0
0.7587073056732956 0.9314658491329368 0
2.591831611315494 0.06590396571765633 0
0.2009292281509958 0.9313063777815138 0
2.676341963589333 0.9327038892927396 0
0.1233986329462518 0.06724581589449791 0
2.740894395710728 0.1165653974772924 0
0.07136837834308563 0.8761896826772844 0
2.599275364714737 0.9313215655117452 0
2.559894481311578 0.8622280683178831 0
2.480761393077143 0.8621548928951661 0
2.52047480041658 0.7936949352416744 0
2.441568269632955 0.7934558174053874 0
2.481412884566197 0.7252397026201149 0
2.402368279919415 0.7249205732349058 0
2.442234174213328 0.6567120927812788 0
2.363085565620179 0.6564053019580064 0
2.402875988948897 0.5879815465976342 0
2.32370700462157 0.5877527754132068 0
2.363567727983355 0.5192245950117788 0
2.284267653681307 0.5190025539832714 0
2.24439963502339 0.5872673608326998 0
2.204864710436055 0.5186576584151752 0
2.164905554438254 0.5870739381386947 0
2.125323920813339 0.5183289184276719 0
2.085301621186342 0.5867689039228606 0
2.045661926058074 0.5180263336358603 0
2.005597747085706 0.586543546586926 0
1.965916440830112 0.5177474793945249 0
1.925793518926771 0.5888892433853719 0
1.886110460096441 0.5179157059437605 0
1.845955318516509 0.5891670339561199 0
1.80625377019458 0.5178118052895546 0
1.766101525357093 0.586898207482113 0
1.726372102951256 0.517074587796143 0
1.686194086937361 0.5867464585653105 0
1.646473137101159 0.5170485459826762 0
1.606263566095715 0.5865641200721227 0
1.566501666780291 0.5168238596109428 0
1.526307865823371 0.5862423539622319 0
1.486536459081588 0.5164558039048704 0
1.446340609160496 0.5859705635596816 0
1.406564434406681 0.516184197020313 0
1.366365586634037 0.5856302452751947 0
1.326585769022337 0.5159182691740973 0
1.286383641917598 0.5853702318738466 0
1.246601185376159 0.5156673829595355 0
1.206397224216494 0.585037359711281 0
1.166559335556461 0.5154379756494397 0
1.126398081905378 0.5847834429189971 0
1.086557411977201 0.5151958832557768 0
1.04492143511896 0.5851820257253358 0
1.006336393805504 0.5150509119686324 0
0.9639375998407737 0.584648226221445 0
0.9261453078565143 0.5147813539267724 0
0.8864414988172412 0.5837685937879746 0
0.846570656777604 0.5144227665184253 0
0.8064581260577712 0.5835250700255123 0
0.7666739600456618 0.5141760611889277 0
0.7265199375328908 0.5832651679922414 0
0.6867658306979249 0.5139292498173746 0
0.6451701256609884 0.5837331604598586 0
0.6066750073585773 0.5138656260458541 0
0.5643957325108441 0.5831612336716082 0
0.5267663960173574 0.5136608156169348 0
0.4867260718619735 0.5822731201281894 0
0.4475836233979401 0.5134796971209457 0
2.324174888533588 0.4505084643878106 0
1.766558956201154 0.4481717622274222 0
2.085771365620659 0.4492615765520037 0
2.403431781984843 0.4507352828407141 0
1.526702120730846 0.447552932149972 0
0.5671816407549272 0.444651761167046 0
1.20663027087894 0.4463735919932247 0
0.8867545767799354 0.4452390129838726 0
0.4061578283016168 0.5830801059286707 0
0.7269244707175183 0.4448445766855705 0
1.926256996921439 0.4486553127617515 0
1.046552446146208 0.44576750120058 0
1.366789192121055 0.4467410704916771 0
0.3682784772052048 0.5136029152414379 0
0.4081346409780597 0.4449960852295261 0
2.364152725461492 0.3819751339049463 0
0.3292113569748576 0.4450020689429044 0
0.3687393793999685 0.3766927762052821 0
2.443313409103442 0.3823900013431316 0
0.3235502768763268 0.5857881387781586 0
0.4415579098824147 0.6535385511971501 0
0.8435712310608506 0.6537286579380682 0
2.323284891975591 0.7247435778615769 0
1.724865382579114 0.6566664891497112 0
1.962223071985457 0.6602217557737424 0
0.6829905685038146 0.653987189644625 0
1.082793462537706 0.6558623375810901 0
1.24539330931539 0.6548140944354827 0
1.405359948209727 0.6553875163226706 0
1.565297481571722 0.6559536399212443 0
2.123783592820166 0.6549671501297417 0
2.482206990898439 0.5885790594617536 0
2.284804514670407 0.3816121031079103 0
2.324882038588097 0.3129778420912662 0
2.245369817299952 0.3125902215752747 0
0.2899169180443044 0.3767444271638936 0
0.3293400530123984 0.308418651211056 0
0.4083893007695987 0.3083586628503565 0
2.285485764793091 0.2439268073530664 0
2.205834994748169 0.2475056846411723 0
2.365058383852332 0.2443418850316701 0
0.3699833206022038 0.2434711458414558 0
0.2822381594325367 0.2436975052855668 0
0.4481040499635249 0.2402652968858906 0
0.2505965000987764 0.4447485698756763 0
2.560331465728488 0.7257027331672559 0
0.2114124095893788 0.3768183619640234 0
2.325679109042975 0.1752671295943176 0
0.4067183830519747 0.1725221577683053 0
2.482420526211801 0.4511375070865059 0
2.522091839755793 0.3829707125295504 0
2.561052911106604 0.4513416618226261 0
2.600625176820063 0.3832526650080017 0
2.562217830090317 0.3144009943874697 0
2.165775466666807 0.3128680222412876 0
2.126125119730709 0.2478503181875271 0
2.086075078265401 0.3127429843160456 0
2.046346133935815 0.2477053594631978 0
2.006298434503598 0.3124679975866676 0
1.966511386030711 0.2473699342990171 0
1.926459916262237 0.3121363632486752 0
1.886633898257627 0.2470797395040429 0
1.846592440011668 0.3118105870586396 0
1.806725670402354 0.2467212592999063 0
1.766688870944779 0.3114705350050092 0
1.726793386916382 0.2464283855844413 0
1.686632547933585 0.3111789765271415 0
1.646814531452058 0.2460841328111317 0
1.765455480813403 0.1774676023310608 0
1.606628440433689 0.3108301049517955 0
1.566856680139736 0.2414497167949923 0
1.526773586848267 0.3097310671703991 0
1.4869098390484 0.2402429343482446 0
1.446851473917219 0.3091390345634176 0
1.406942444845116 0.2396962435989133 0
1.366881481383984 0.3087246415254865 0
1.326961032178627 0.2392894468367781 0
1.286898137644694 0.308363499134327 0
1.246973012093314 0.238915812812634 0
1.206784425153907 0.3080057048970333 0
1.166970265610109 0.2366539856936745 0
1.126646119304764 0.3072731383159023 0
1.086952718789884 0.2359104557697129 0
1.046626516665425 0.3067815088118975 0
1.006953363450777 0.2354827130027444 0
0.9666310029967838 0.3064064023785302 0
0.9269643605003708 0.2351086017222284 0
0.8866484907732088 0.3060263911163884 0
0.8469885825255234 0.2347541756233169 0
0.80669582216725 0.3057021887196711 0
0.7670529148443015 0.2344167496557272 0
0.7267860405060349 0.3053204077668307 0
0.6871491839106109 0.2406251134505869 0
0.6469574884366536 0.3059767569369193 0
0.6071582585750572 0.2388971068677456 0
0.487458611378226 0.3076345089095445 0
1.646320693626331 0.3792762139444678 0
0.1763001445510446 0.4487474438927006 0
0.2092383640240292 0.5179471090308596 0
0.1324029085743219 0.3804600681899131 0
0.1741383253603914 0.3168933205279613 0
2.405204341003406 0.1795485513314335 0
2.444402681602318 0.2455451372900544 0
2.484572581070689 0.1808776305601328 0
2.085083065589031 0.178617319097521 0
1.925323892196961 0.1780357321323143 0
1.538012059717751 0.1748060153494549 0
1.378054815686109 0.1739576047990627 0
1.218077368986791 0.1711042397669406 0
0.4977339586084955 0.1831356241046175 0
1.044958739658441 0.1592895838581813 0
0.8849729696234412 0.1587013739836759 0
0.7127065938711374 0.1607972669884254 0
2.633845701127528 0.4543532859265815 0
2.599106856637813 0.5224940219227204 0
2.673479888605403 0.3972496941001131 0
2.377262606223138 0.1170845937140967 0
2.294827801799713 0.1095841531895609 0
2.638489116940793 0.8625888475023857 0
2.725257161038861 0.8716256552352053 0
2.679135527619464 0.7973621790627974 0
2.400995987567024 0.8620487287513395 0
0.6866535659162568 0.3748818047028161 0
0.6066965188213521 0.3742875948870047 0
2.523515383132725 0.246311931377124 0
2.560248572407409 0.1803228746022817 0
2.519957989011993 0.1118045772240935 0
2.60009788857962 0.2455551240898248 0
2.624537427851735 0.1765749505107951 0
2.653923450471008 0.3129473353928542 0
0.2005963406193676 0.06866120302583123 0
0.1608818717181801 0.1372836297570291 0
0.07435168666352299 0.1282537356156563 0
0.1142415035793793 0.2009669110066058 0
0.1994301908459541 0.2059331629679934 0
2.599540550867132 0.7946261271696589 0
2.6410465896691 0.7269553979047105 0
2.682475366817713 0.6587037259514842 0
2.602455741470366 0.6584702738344723 0
2.647157020965906 0.5923823735752405 0
2.725828183820831 0.5889133028928519 0
2.521746993962454 0.6574292149086703 0
2.562368312333467 0.5899728067331568 0
2.44277033704571 0.5194604761419888 0
0.2800303577653707 0.930932231972051 0
0.240157138952414 0.8622676490079035 0
0.1591930015332728 0.8650466691279849 0
0.1996474119304317 0.7942803756556024 0
0.2793329194591101 0.7939171047257995 0
0.2398823810747337 0.7257994722330827 0
0.3188220550794356 0.7255523027998345 0
0.3584207771632724 0.7937552463799864 0
0.1585645406074188 0.7264057659348705 0
0.2002354985031742 0.6580354300999399 0
0.1225051421729462 0.6578577486323216 0
0.1615275596321879 0.5903173535174646 0
0.07941394021424775 0.5845462498556219 0
0.398733748627627 0.7247092987054111 0
0.4378231314330492 0.7936807376816237 0
0.242696373183132 0.5880326855148137 0
0.1188709355832971 0.7998034396162308 0
0.3613681213072724 0.6550598818025221 0
0.4778751573722765 0.724703785339283 0
0.5173281654022189 0.793748369010539 0
0.5582662937210008 0.7240165053226989 0
0.5969251284825253 0.7942653482983363 0
0.4780623559699582 0.8621533578751013 0
0.638267279874724 0.7249824339133 0
0.6767197587311431 0.7948068867679754 0
0.8464007821839752 0.3755619333069004 0
0.287261891393721 0.5158535812306417 0
1.006509537656609 0.376133344773144 0
0.4875008277851338 0.444849267583468 0
0.3600293546375366 0.06487510271809394 0
0.328897940884971 0.1331078285324271 0
0.4400586653007448 0.06410404954782456 0
2.521536270065825 0.5204818966960836 0
2.280161786947777 0.9307839539978116 0
2.320797664162188 0.8618507857035738 0
2.240340990155286 0.8616632843591383 0
2.281369305175271 0.7929484023211945 0
2.200796163064378 0.7927788159434537 0
2.242111685951825 0.7241244386330657 0
2.200093409229481 0.930775116429065 0
0.6000932098699873 0.06847728326986896 0
0.6276377686920218 0.1380225306485267 0
0.7601087071342122 0.08406877485229985 0
0.802178615234916 0.1583017779559284 0
0.9224610700582772 0.07836309923281137 0
0.964591492986517 0.1573705789302595 0
1.081606193176294 0.08153472117673055 0
1.136937898031645 0.1522027869225465 0
2.404160779202519 0.3136247309709153 0
0.2415935102356159 0.1326075079281636 0
2.160233445059283 0.8616141013048164 0
2.080102939797491 0.8615148990363808 0
2.12065533560118 0.7926413986710423 0
2.040239206000638 0.7927502403809767 0
2.000653222809142 0.8618644529990335 0
1.958593850086231 0.7973054581961473 0
2.082124801062702 0.7240447397021309 0
0.7183552215879716 0.7254526660390965 0
0.7566128028485903 0.7953114294086909 0
0.799705444828445 0.7250594587550816 0
0.8369725580078411 0.7953218696851569 0
0.8769149340590913 0.7271172544031849 0
0.9165547705501687 0.7959172293395942 0
0.957681443970285 0.7262557801394531 0
0.9964533695846303 0.7971263772118853 0
0.8777296853717519 0.8635315334850402 0
1.037926358373916 0.7273437386053001 0
1.076442659266198 0.7976282296420216 0
1.118182871753971 0.7278938738573251 0
1.156435540323208 0.7981284268834574 0
1.196864723512348 0.7291015174699641 0
1.236429303411128 0.7986277388750151 0
1.277594821830529 0.7291834324168249 0
1.316422413306863 0.7991265352355493 0
1.35685099813842 0.7301005696538651 0
1.396413923679889 0.7996251355035362 0
1.437575697405962 0.7301653963402712 0
1.47640294589703 0.8001234668621993 0
1.516829290340529 0.7311018908463733 0
1.556388435246921 0.8006216777773807 0
1.597834039728365 0.7309689555492608 0
1.637371384438637 0.7996192439451586 0
1.676787719154119 0.7321084665986876 0
1.717332183113988 0.8008921606039603 0
1.756752644239385 0.7326130489077343 0
1.796466622176274 0.8009601493302427 0
1.838623765654042 0.7330745803637834 0
1.758156019935767 0.8669223647357402 0
1.876625847186024 0.8015217674071831 0
1.00153839457302 0.6549954957239217 0
0.6470639271934641 0.4446287521107669 0
0.7665643528760495 0.37529403485687 0
1.166469784862718 0.3770203542149755 0
0.6019485096854059 0.6531528055242362 0
1.644412801527189 0.6582175884337512 0
0.2496989215907821 0.3144683153552991 0
2.483283653814519 0.3142072513163742 0
1.484960081631506 0.6573175940218823 0
0.7629334215952908 0.6541697017324375 0
1.325006963063722 0.6564096210111963 0
0.8067706585737313 0.445027088158938 0
1.164908086426274 0.6555908178060325 0
1.078257395026002 0.9314431790347597 0
1.71999930455112 0.06432731409446046 0
1.681425383719327 0.1335595270497563 0
1.799998992777202 0.06352625695423381 0
1.841800235125267 0.1322972677979213 0
1.239999999999998 0.06928203230275487 0
1.959999804112642 0.0637466303914811 0
2.001740494766002 0.1325735250288654 0
1.558229852409809 0.9322557131531883 0
1.23823295190755 0.9316481124865295 0
0.6783299253502902 0.9309905324557082 0
0.5186998860014341 0.9309899038007885 0
2.119713188969744 0.06332242547804656 0
2.159999999999998 0.1385640646055102 0
1.398227433006067 0.931864610866033 0
1.399999999999998 0.06928203230275493 0
1.559999999999998 0.0668432032434863 0
1.960728655364669 0.9313026449319536 0
1.286782619570087 0.4465951067639524 0
1.30167770482414 0.1745326552390792 0
1.446760385835861 0.4470898106588249 0
1.461653193216229 0.175581074210531 0
1.802979753731576 0.661201650633548 0
1.88235785267923 0.6637427364047495 0
1.846422988772056 0.4484589705179448 0
2.165369177160641 0.4497122371746561 0
0.5670590875598581 0.3064348492221435 0
2.04 0.9307670532481757 0
2.00602209835853 0.4489494635722891 0
1.620017375183581 0.1843244512026402 0
2.244827232334883 0.4501133385716142 0
0.9263878901847029 0.3758296604659542 0
2.440500256754477 0.931022732278979 0
2.238249679436791 0.1760449953943677 0
0.06295327994894118 0.4222558842525143 0
0.2810924510040125 0.6563779852047252 0
2.739775028580105 0.1940324132639029 0
0.9666394038850881 0.4455864649239504 0
0.5484555967984849 0.1272198363514591 0
1.686536665456933 0.448167104271748 0
2.283519883931977 0.6558073372748399 0
2.361730733072074 0.7933279808796629 0
1.086551958737146 0.3765177726027596 0
2.205444678751584 0.3812148270895023 0
1.126507347787152 0.4461307883000584 0
1.246762803724153 0.3773555119555083 0
0.3190214024928073 0.8621580021859816 0
1.326953078186001 0.3777268686549663 0
2.125877887759188 0.3808672357645056 0
1.406959537571349 0.3780506557112118 0
2.04607568508218 0.3807538476502689 0
1.486800676945555 0.3783590857983828 0
0.4479695864310965 0.3765124877158237 0
1.566652215372867 0.3789780844770658 0
1.966375669160029 0.380298568416176 0
1.886545120165675 0.3799933075534321 0
1.606575851885055 0.4480157841988785 0
1.726583886833951 0.3796510199245769 0
1.806565377154881 0.3799260303811708 0
0.918762972754644 0.931900941177668 0
0.5273110454550991 0.3757284115808384 0
0.3983961314286428 0.8621893696856351 0
0.4391096615964541 0.9310454319350169 0
0.55768813946826 0.8622799350955859 0
2.203543758575018 0.6556383482564472 0
2.162169222845878 0.7240324818893136 0
0.5287778768615884 0.2454175714010637 0
0.6371136651631716 0.8622915738039315 0
0.06304326694435791 0.347792827945644 0
2.043208475745478 0.6563563739679489 0
1.99953803534462 0.7280776640413155 0
0.7172613910552064 0.8628422746511415 0
0.7978806238261147 0.8637346655188622 0
0.8388467646043017 0.9317721648857511 0
1.799609967613314 0.9328666809768896 0
0.956536758690713 0.8630879305724515 0
1.918804918185999 0.8648931352811934 0
1.036036810031431 0.8629183776820434 0
1.116277731040644 0.8634177771803822 0
2.679603285990429 0.07093484730505428 0
0.1213536377790949 0.9361307872886906 0
1.19602652018803 0.8634067689652207 0
1.276267885344368 0.8639239629465723 0
0.1376600950735527 0.520371539033601 0
0.521794945838986 0.6534743335305276 0
1.356016013339749 0.8638944491938061 0
0.921680850386877 0.6550856680356746 0
1.436254343470459 0.8644290922171334 0
1.515997005205213 0.864379688955339 0
1.597936566104093 0.8662554417626487 0
1.677507170326531 0.8667822542020502 0
1.719000974155677 0.9332410378688963 0
2.738805166319646 0.4255212464956336 0
1.837633577842776 0.8662028791257281 0
2.733265194440568 0.3495427895878437 0
1.919660403822601 0.7306573270311535 0
2.670085112255669 0.5248971520760684 0
2.674130670623659 0.2253644577223836 0
0.05460266964921523 0.6558604285579173 0
0.05257851574837824 0.8051383128102974 0
2.745763347722513 0.8022116565560881 0
0.05104210579911017 0.1966133600936832 0
2.748654465877439 0.6560001129664377 0
2.740943834846202 0.9417200497785116 0
0.05905616515379819 0.05827995022148846 0
0.1469768495057151 0.2632940572342664 0
0.115254598055871 0.4542128037695498 0
2.634425531496283 0.1181504717278941 0
0.05663121864721288 0.9442419941453604 0
2.745782431856585 0.05429201528649913 0
2.519999999999999 0.04674487844686864 0
2.445632487000736 0.1310234627827396 0
2.356025112731062 0.05125068288105195 0
2.278212847566121 0.04861602834260303 0
0.210496489347076 0.2688572722742174 0
2.163969060718596 0.1978916710783519 0
2.079999999999998 0.1140643315412638 0
2.006650086808199 0.1979814354924943 0
1.919999999999998 0.1135969722736632 0
0.27757496577438 0.1817228043651352 0
1.846875632961744 0.1976466133958295 0
1.759999353343893 0.1131492146746179 0
0.4031439633935545 0.1094512593219831 0
0.4693684070994578 0.1202218844533711 0
1.68810123161695 0.197572819795806 0
1.595173192692934 0.1199455901764128 0
1.518040679474997 0.11439592029175 0
1.437433715280449 0.1147674812070977 0
1.359999999999998 0.1120700981231396 0
0.1164644741031182 0.318947275597432 0
1.277555580284919 0.1140916720653674 0
0.5730411336162615 0.190311147684571 0
1.202373968462342 0.1129375156851083 0
2.231219660641674 0.114708119397106 0
0.3330825539492135 0.194904288358578 0
2.584675755671293 0.1270939344724291 0
0.6474141546384667 0.1951896693775282 0
2.685324821557389 0.1512920603854875 0
2.693314087576181 0.4623299851935941 0
$EndNodes
$Elements
5 1152 1 1152
1 1 1 35
1 1 5 
2 5 6 
3 6 7 
4 7 8 
5 8 9 
6 9 10 
7 10 11 
8 11 12 
9 12 13 
10 13 14 
11 14 15 
12 15 16 
13 16 17 
14 17 18 
15 18 19 
16 19 20 
17 20 21 
18 21 22 
19 22 23 
20 23 24 
21 24 25 
22 25 26 
23 26 27 
24 27 28 
25 28 29 
26 29 30 
27 30 31 
28 31 32 
29 32 33 
30 33 34 
31 34 35 
32 35 36 
33 36 37 
34 37 38 
35 38 2 
1 2 1 13
36 2 39 
37 39 40 
38 40 41 
39 41 42 
40 42 43 
41 43 44 
42 44 45 
43 45 46 
44 46 47 
45 47 48 
46 48 49 
47 49 50 
48 50 3 
1 3 1 35
49 3 51 
50 51 52 
51 52 53 
52 53 54 
53 54 55 
54 55 56 
55 56 57 
56 57 58 
57 58 59 
58 59 60 
59 60 61 
60 61 62 
61 62 63 
62 63 64 
63 64 65 
64 65 66 
65 66 67 
66 67 68 
67 68 69 
68 69 70 
69 70 71 
70 71 72 
71 72 73 
72 73 74 
73 74 75 
74 75 76 
75 76 77 
76 77 78 
77 78 79 
78 79 80 
79 80 81 
80 81 82 
81 82 83 
82 83 84 
83 84 4 
1 4 1 13
84 4 85 
85 85 86 
86 86 87 
87 87 88 
88 88 89 
89 89 90 
90 90 91 
91 91 92 
92 92 93 
93 93 94 
94 94 95 
95 95 96 
96 96 1 
2 1 2 1056
97 133 353 339 
98 303 382 121 
99 304 380 102 
100 117 533 322 
101 305 378 120 
102 121 383 303 
103 102 381 304 
104 120 379 305 
105 18 383 17 
106 16 381 15 
107 14 379 13 
108 98 349 90 
109 50 312 49 
110 133 538 353 
111 96 325 95 
112 90 349 89 
113 322 536 117 
114 116 347 345 
115 50 542 312 
116 45 333 97 
117 96 543 325 
118 509 534 217 
119 99 383 18 
120 17 383 121 
121 329 330 115 
122 121 381 16 
123 15 381 102 
124 322 533 308 
125 13 379 120 
126 102 379 14 
127 313 329 115 
128 352 363 212 
129 345 353 116 
130 98 522 349 
131 212 474 352 
132 339 519 133 
133 155 462 157 
134 213 354 201 
135 291 352 348 
136 350 354 213 
137 275 384 273 
138 291 363 352 
139 279 382 277 
140 283 380 281 
141 217 534 462 
142 333 535 97 
143 99 384 383 
144 332 335 307 
145 121 382 381 
146 46 333 45 
147 403 426 219 
148 331 332 330 
149 219 426 177 
150 102 380 379 
151 360 430 218 
152 218 430 187 
153 329 331 330 
154 421 461 423 
155 354 474 212 
156 235 553 327 
157 327 558 235 
158 216 461 421 
159 216 421 419 
160 201 354 212 
161 222 417 415 
162 217 462 155 
163 398 525 400 
164 157 462 461 
165 221 413 411 
166 355 523 357 
167 419 431 216 
168 348 522 291 
169 327 553 544 
170 213 355 350 
171 220 409 407 
172 415 434 222 
173 303 384 275 
174 273 384 301 
175 277 382 303 
176 304 382 279 
177 281 380 304 
178 305 380 283 
179 116 537 347 
180 411 436 221 
181 222 431 417 
182 219 405 403 
183 531 533 43 
184 221 434 413 
185 407 438 220 
186 331 335 332 
187 327 544 326 
188 177 426 179 
189 220 436 409 
190 219 438 405 
191 367 561 241 
192 214 398 396 
193 349 522 348 
194 396 435 214 
195 394 435 396 
196 218 435 394 
197 99 571 384 
198 218 394 360 
199 187 430 189 
200 405 438 407 
201 409 436 411 
202 413 434 415 
203 417 431 419 
204 310 551 309 
205 310 552 551 
206 340 353 345 
207 339 353 340 
208 112 549 319 
209 378 575 570 
210 319 550 112 
211 63 530 513 
212 110 532 515 
213 446 555 297 
214 297 556 446 
215 378 570 477 
216 472 554 452 
217 443 557 298 
218 298 559 443 
219 241 573 367 
220 441 560 261 
221 261 563 441 
222 214 525 398 
223 213 523 355 
224 461 462 423 
225 161 431 163 
226 392 534 509 
227 335 369 307 
228 383 384 303 
229 332 333 330 
230 305 575 378 
231 381 382 304 
232 373 480 371 
233 373 375 215 
234 379 380 305 
235 165 434 167 
236 299 564 468 
237 299 565 564 
238 375 479 215 
239 460 565 299 
240 460 566 565 
241 215 480 373 
242 332 535 333 
243 111 371 314 
244 317 320 246 
245 300 566 460 
246 300 567 566 
247 224 369 335 
248 320 322 246 
249 561 562 241 
250 393 509 508 
251 458 567 300 
252 508 509 217 
253 371 480 314 
254 458 569 567 
255 241 562 302 
256 169 436 171 
257 301 569 458 
258 301 571 569 
259 452 572 472 
260 393 504 389 
261 244 369 242 
262 216 431 161 
263 291 522 290 
264 163 431 222 
265 245 322 308 
266 316 427 198 
267 224 335 334 
268 311 312 130 
269 292 545 473 
270 246 433 317 
271 224 334 141 
272 173 438 175 
273 308 533 531 
274 317 433 295 
275 134 311 130 
276 392 515 425 
277 222 434 165 
278 167 434 221 
279 511 512 127 
280 314 471 111 
281 316 499 465 
282 315 427 316 
283 307 369 244 
284 402 512 511 
285 52 134 130 
286 246 322 245 
287 223 504 393 
288 202 427 315 
289 323 324 131 
290 324 325 131 
291 141 334 139 
292 6 323 131 
293 465 499 288 
294 221 436 169 
295 171 436 220 
296 311 328 313 
297 311 313 312 
298 79 501 450 
299 129 338 337 
300 129 339 338 
301 135 328 311 
302 143 336 224 
303 209 363 237 
304 328 329 313 
305 418 529 528 
306 513 530 424 
307 315 428 202 
308 129 337 82 
309 242 369 336 
310 119 135 134 
311 323 386 324 
312 324 326 325 
313 111 471 55 
314 237 363 291 
315 473 507 292 
316 515 532 425 
317 238 329 328 
318 220 438 173 
319 175 438 219 
320 229 432 235 
321 272 484 429 
322 135 311 134 
323 339 340 338 
324 238 331 329 
325 387 389 374 
326 400 525 426 
327 324 386 327 
328 350 355 351 
329 145 336 143 
330 52 130 51 
331 192 365 190 
332 119 134 53 
333 6 131 5 
334 367 386 114 
335 340 345 342 
336 318 321 320 
337 208 385 211 
338 318 320 317 
339 345 347 346 
340 450 501 359 
341 245 308 306 
342 259 496 289 
343 207 365 192 
344 206 363 209 
345 114 323 7 
346 245 306 244 
347 237 290 239 
348 200 437 362 
349 428 437 202 
350 336 369 224 
351 243 245 244 
352 243 244 242 
353 201 206 192 
354 347 349 348 
355 209 237 228 
356 366 367 114 
357 191 192 190 
358 226 385 208 
359 362 437 428 
360 8 366 114 
361 290 292 239 
362 101 376 58 
363 211 243 242 
364 83 129 82 
365 37 128 36 
366 201 212 206 
367 357 523 430 
368 237 239 228 
369 211 242 196 
370 191 201 192 
371 355 356 351 
372 139 238 137 
373 372 387 374 
374 81 337 113 
375 370 371 111 
376 119 136 135 
377 212 363 206 
378 9 368 366 
379 238 328 137 
380 56 370 111 
381 139 334 238 
382 54 119 53 
383 362 470 200 
384 136 137 135 
385 296 317 295 
386 345 346 342 
387 376 387 372 
388 53 134 52 
389 429 484 199 
390 119 471 136 
391 7 323 6 
392 189 191 190 
393 137 328 135 
394 294 295 233 
395 282 428 284 
396 101 387 376 
397 528 529 100 
398 11 377 109 
399 347 348 346 
400 136 471 314 
401 8 114 7 
402 364 476 470 
403 196 336 145 
404 189 190 188 
405 58 376 57 
406 296 318 317 
407 114 386 323 
408 82 337 81 
409 208 211 196 
410 204 476 364 
411 295 433 385 
412 81 113 80 
413 35 112 34 
414 206 209 207 
415 237 291 290 
416 56 111 55 
417 143 224 141 
418 174 483 199 
419 294 296 295 
420 503 504 223 
421 284 428 315 
422 109 368 10 
423 209 228 210 
424 470 476 200 
425 306 307 244 
426 340 342 341 
427 450 502 104 
428 9 366 8 
429 190 365 198 
430 193 196 145 
431 233 385 226 
432 242 336 196 
433 295 385 233 
434 57 370 56 
435 178 476 204 
436 11 109 10 
437 198 427 188 
438 377 477 109 
439 372 373 371 
440 188 427 186 
441 190 198 188 
442 362 428 282 
443 120 377 12 
444 120 378 377 
445 286 287 285 
446 186 427 202 
447 429 483 481 
448 346 474 342 
449 10 368 9 
450 370 372 371 
451 206 207 192 
452 284 286 285 
453 186 202 184 
454 138 139 137 
455 12 377 11 
456 199 483 429 
457 187 188 186 
458 185 187 186 
459 284 285 283 
460 352 474 346 
461 13 120 12 
462 315 316 286 
463 388 389 387 
464 337 485 113 
465 185 186 184 
466 282 284 283 
467 187 189 188 
468 182 437 200 
469 364 481 204 
470 390 393 389 
471 79 450 78 
472 78 450 104 
473 316 465 286 
474 343 354 350 
475 108 452 451 
476 391 466 456 
477 280 282 281 
478 282 283 281 
479 57 376 370 
480 292 293 239 
481 284 315 286 
482 374 375 373 
483 126 446 445 
484 240 294 233 
485 421 423 422 
486 183 185 184 
487 280 281 279 
488 183 184 182 
489 101 466 388 
490 103 443 442 
491 388 466 391 
492 280 362 282 
493 278 280 279 
494 193 208 196 
495 181 182 180 
496 229 235 234 
497 465 505 287 
498 417 419 418 
499 185 218 187 
500 419 421 420 
501 185 435 218 
502 423 425 422 
503 440 441 124 
504 179 180 178 
505 181 183 182 
506 415 417 416 
507 61 456 60 
508 110 456 61 
509 183 435 185 
510 179 181 180 
511 178 204 176 
512 270 484 272 
513 182 200 180 
514 417 418 416 
515 231 233 226 
516 413 415 414 
517 25 440 124 
518 26 440 25 
519 101 388 387 
520 103 442 27 
521 276 364 278 
522 411 413 412 
523 26 442 440 
524 419 420 418 
525 285 305 283 
526 391 392 390 
527 177 179 178 
528 177 178 176 
529 276 278 277 
530 409 411 410 
531 274 276 275 
532 421 422 420 
533 259 289 262 
534 388 390 389 
535 170 457 205 
536 407 409 408 
537 272 429 274 
538 415 416 414 
539 278 279 277 
540 413 414 412 
541 272 274 273 
542 27 442 26 
543 411 412 410 
544 276 277 275 
545 409 410 408 
546 274 275 273 
547 123 447 66 
548 125 444 20 
549 62 110 61 
550 66 447 65 
551 105 453 68 
552 17 121 16 
553 28 103 27 
554 68 453 67 
555 20 444 19 
556 25 124 24 
557 15 102 14 
558 22 454 21 
559 71 122 70 
560 106 439 72 
561 28 445 103 
562 24 455 23 
563 126 445 29 
564 19 444 99 
565 23 107 22 
566 23 455 107 
567 69 105 68 
568 108 451 31 
569 72 439 71 
570 76 127 75 
571 29 445 28 
572 67 453 123 
573 78 104 77 
574 21 454 125 
575 69 448 105 
576 30 126 29 
577 65 447 100 
578 76 449 127 
579 30 451 126 
580 32 108 31 
581 71 439 122 
582 19 99 18 
583 77 449 76 
584 65 100 64 
585 122 448 70 
586 104 449 77 
587 124 455 24 
588 31 451 30 
589 21 125 20 
590 107 454 22 
591 67 123 66 
592 70 448 69 
593 73 106 72 
594 59 101 58 
595 405 407 406 
596 140 141 139 
597 407 408 406 
598 214 435 183 
599 172 457 170 
600 270 272 271 
601 272 273 271 
602 170 205 168 
603 175 219 177 
604 175 177 176 
605 166 459 197 
606 174 199 172 
607 175 176 174 
608 405 406 404 
609 400 426 403 
610 273 301 271 
611 168 459 166 
612 173 175 174 
613 171 220 173 
614 403 405 404 
615 268 270 269 
616 277 303 275 
617 199 457 172 
618 173 174 172 
619 270 271 269 
620 266 268 267 
621 171 173 172 
622 228 432 229 
623 269 300 267 
624 268 269 267 
625 171 172 170 
626 264 266 265 
627 456 466 60 
628 205 459 168 
629 301 458 271 
630 169 171 170 
631 403 404 401 
632 181 214 183 
633 167 221 169 
634 266 267 265 
635 271 458 269 
636 400 403 401 
637 191 213 201 
638 166 197 164 
639 281 304 279 
640 169 170 168 
641 269 458 300 
642 265 299 263 
643 262 264 263 
644 167 169 168 
645 264 265 263 
646 400 401 399 
647 167 168 166 
648 399 402 397 
649 300 460 267 
650 398 400 399 
651 267 460 265 
652 259 262 260 
653 165 167 166 
654 163 222 165 
655 202 437 184 
656 265 460 299 
657 136 138 137 
658 262 263 260 
659 165 166 164 
660 59 466 101 
661 422 424 420 
662 184 437 182 
663 243 246 245 
664 257 259 258 
665 398 399 397 
666 152 467 195 
667 163 165 164 
668 159 216 161 
669 259 260 258 
670 163 164 162 
671 156 203 154 
672 258 261 256 
673 255 257 256 
674 536 576 475 
675 154 467 152 
676 396 398 397 
677 161 163 162 
678 286 465 287 
679 257 258 256 
680 355 357 356 
681 157 461 159 
682 160 194 158 
683 161 162 160 
684 270 486 484 
685 159 461 216 
686 253 255 254 
687 372 374 373 
688 159 161 160 
689 255 256 254 
690 150 464 148 
691 159 160 158 
692 251 253 252 
693 211 433 243 
694 263 468 260 
695 356 359 351 
696 254 298 252 
697 153 217 155 
698 60 466 59 
699 156 463 203 
700 157 159 158 
701 253 254 252 
702 249 251 250 
703 396 397 395 
704 340 341 338 
705 157 158 156 
706 388 391 390 
707 194 463 158 
708 481 483 204 
709 334 335 331 
710 155 157 156 
711 155 156 154 
712 268 486 270 
713 203 467 154 
714 251 252 250 
715 324 327 326 
716 152 195 150 
717 158 463 156 
718 357 430 360 
719 280 470 362 
720 153 155 154 
721 394 396 395 
722 195 464 150 
723 247 249 248 
724 299 468 263 
725 250 297 248 
726 289 496 478 
727 364 470 278 
728 249 250 248 
729 153 154 152 
730 209 210 207 
731 231 240 233 
732 240 309 294 
733 149 223 151 
734 268 488 486 
735 394 395 361 
736 359 501 500 
737 227 247 232 
738 360 394 361 
739 151 153 152 
740 138 140 139 
741 54 471 119 
742 146 193 145 
743 180 476 178 
744 142 143 141 
745 151 152 150 
746 247 248 232 
747 266 488 268 
748 144 145 143 
749 228 229 210 
750 104 506 449 
751 149 151 150 
752 238 334 331 
753 343 474 354 
754 55 471 54 
755 342 343 341 
756 225 226 208 
757 370 376 372 
758 357 360 358 
759 360 361 358 
760 149 150 148 
761 296 319 318 
762 357 358 356 
763 227 231 226 
764 266 490 488 
765 144 146 145 
766 278 470 280 
767 227 232 231 
768 243 433 246 
769 162 478 160 
770 276 481 364 
771 429 481 274 
772 140 142 141 
773 144 147 146 
774 147 149 148 
775 385 433 211 
776 264 490 266 
777 348 352 346 
778 288 499 491 
779 464 469 148 
780 240 310 309 
781 225 227 226 
782 147 148 146 
783 236 288 230 
784 142 144 143 
785 241 302 236 
786 193 225 208 
787 176 483 174 
788 502 506 104 
789 492 495 197 
790 146 469 193 
791 231 472 240 
792 232 472 231 
793 198 499 316 
794 193 469 225 
795 234 241 236 
796 200 476 180 
797 234 236 230 
798 148 469 146 
799 378 477 377 
800 229 234 230 
801 140 215 142 
802 240 472 310 
803 162 495 478 
804 239 432 228 
805 48 115 47 
806 160 478 194 
807 91 98 90 
808 45 97 44 
809 92 473 91 
810 136 314 138 
811 227 482 247 
812 257 497 496 
813 342 474 343 
814 469 482 225 
815 257 496 259 
816 338 485 337 
817 274 481 276 
818 88 116 87 
819 42 117 41 
820 229 230 210 
821 464 482 469 
822 343 350 344 
823 255 497 257 
824 350 351 344 
825 262 492 264 
826 506 510 449 
827 375 503 479 
828 197 495 164 
829 247 487 249 
830 249 489 251 
831 449 510 127 
832 253 494 255 
833 144 479 147 
834 478 495 289 
835 491 499 365 
836 204 483 176 
837 341 485 338 
838 251 493 253 
839 94 118 93 
840 293 432 239 
841 493 494 253 
842 489 493 251 
843 343 344 341 
844 225 482 227 
845 482 487 247 
846 207 491 365 
847 41 475 40 
848 142 479 144 
849 264 492 490 
850 349 537 89 
851 74 498 73 
852 138 480 140 
853 494 497 255 
854 199 484 457 
855 487 489 249 
856 215 479 142 
857 389 504 374 
858 484 486 457 
859 140 480 215 
860 290 545 292 
861 344 485 341 
862 464 487 482 
863 457 486 205 
864 500 501 113 
865 40 132 39 
866 86 133 85 
867 288 491 230 
868 486 488 205 
869 510 511 127 
870 91 473 98 
871 289 495 492 
872 314 480 138 
873 195 487 464 
874 205 488 459 
875 488 490 459 
876 459 490 197 
877 467 489 195 
878 195 489 487 
879 552 572 108 
880 359 500 351 
881 210 491 207 
882 467 493 489 
883 289 492 262 
884 80 501 79 
885 375 504 503 
886 203 494 493 
887 463 494 203 
888 203 493 467 
889 164 495 162 
890 485 500 113 
891 496 497 194 
892 117 475 41 
893 230 491 210 
894 194 497 463 
895 490 492 197 
896 129 519 339 
897 463 497 494 
898 478 496 194 
899 73 498 106 
900 40 475 132 
901 393 508 223 
902 365 499 198 
903 149 503 223 
904 307 535 332 
905 479 503 147 
906 359 502 450 
907 351 500 344 
908 344 500 485 
909 74 512 498 
910 288 505 465 
911 113 501 80 
912 236 505 288 
913 390 509 393 
914 514 516 106 
915 356 502 359 
916 153 508 217 
917 223 508 151 
918 106 516 439 
919 132 576 518 
920 402 511 397 
921 516 517 439 
922 498 514 106 
923 498 512 402 
924 127 512 75 
925 92 507 473 
926 63 513 62 
927 439 517 122 
928 399 514 402 
929 110 515 456 
930 118 507 93 
931 38 518 37 
932 84 519 83 
933 517 520 122 
934 391 515 392 
935 122 520 448 
936 426 525 179 
937 358 502 356 
938 520 521 448 
939 147 503 149 
940 374 504 375 
941 448 521 105 
942 402 514 498 
943 302 505 236 
944 358 506 502 
945 321 576 536 
946 521 524 105 
947 189 523 191 
948 179 525 181 
949 105 524 453 
950 361 506 358 
951 430 523 189 
952 306 535 307 
953 93 507 92 
954 524 526 453 
955 319 549 128 
956 361 510 506 
957 453 526 123 
958 392 509 390 
959 151 508 153 
960 420 529 418 
961 526 527 123 
962 395 510 361 
963 518 576 546 
964 123 527 447 
965 44 531 43 
966 422 532 424 
967 320 536 322 
968 395 511 510 
969 527 528 447 
970 397 511 395 
971 447 528 100 
972 43 533 42 
973 330 541 115 
974 64 530 63 
975 75 512 74 
976 62 513 110 
977 401 514 399 
978 353 538 116 
979 401 516 514 
980 456 515 391 
981 404 516 401 
982 425 534 392 
983 51 542 3 
984 5 543 1 
985 3 542 50 
986 1 543 96 
987 310 572 552 
988 404 517 516 
989 312 542 130 
990 406 517 404 
991 83 519 129 
992 37 518 128 
993 406 520 517 
994 309 551 112 
995 408 520 406 
996 408 521 520 
997 112 550 309 
998 410 521 408 
999 312 539 49 
1000 424 532 513 
1001 325 543 131 
1002 410 524 521 
1003 384 571 301 
1004 412 524 410 
1005 115 539 313 
1006 191 523 213 
1007 412 526 524 
1008 181 525 214 
1009 414 526 412 
1010 117 536 475 
1011 414 527 526 
1012 88 537 116 
1013 416 527 414 
1014 416 528 527 
1015 513 532 110 
1016 418 528 416 
1017 386 558 327 
1018 100 530 64 
1019 118 540 326 
1020 297 555 452 
1021 424 529 420 
1022 116 538 87 
1023 452 554 297 
1024 325 540 95 
1025 477 562 109 
1026 86 538 133 
1027 432 553 235 
1028 97 531 44 
1029 128 549 36 
1030 302 562 477 
1031 425 532 422 
1032 298 557 446 
1033 366 561 367 
1034 446 556 298 
1035 35 549 112 
1036 462 534 423 
1037 112 551 34 
1038 261 560 443 
1039 443 559 261 
1040 285 575 305 
1041 115 541 47 
1042 452 555 451 
1043 309 550 294 
1044 32 552 108 
1045 126 555 446 
1046 42 533 117 
1047 446 557 445 
1048 103 557 443 
1049 443 560 442 
1050 440 560 441 
1051 468 563 260 
1052 441 564 124 
1053 441 563 468 
1054 468 564 441 
1055 261 559 256 
1056 258 563 261 
1057 298 556 252 
1058 254 559 298 
1059 297 554 248 
1060 250 556 297 
1061 232 554 472 
1062 296 550 319 
1063 423 534 425 
1064 4 547 84 
1065 2 548 38 
1066 85 547 4 
1067 39 548 2 
1068 529 530 100 
1069 308 577 306 
1070 477 570 302 
1071 318 574 321 
1072 424 530 529 
1073 49 539 48 
1074 522 545 290 
1075 347 537 349 
1076 95 540 94 
1077 302 570 505 
1078 326 544 118 
1079 321 536 320 
1080 94 540 118 
1081 48 539 115 
1082 128 574 319 
1083 544 553 293 
1084 89 537 88 
1085 531 577 308 
1086 306 577 535 
1087 234 573 241 
1088 46 541 333 
1089 87 538 86 
1090 313 539 312 
1091 333 541 330 
1092 326 540 325 
1093 118 568 507 
1094 38 548 518 
1095 84 547 519 
1096 108 572 452 
1097 570 575 287 
1098 47 541 46 
1099 130 542 51 
1100 131 543 5 
1101 321 574 546 
1102 505 570 287 
1103 518 548 132 
1104 519 547 133 
1105 235 573 234 
1106 473 545 98 
1107 36 549 35 
1108 367 558 386 
1109 294 550 296 
1110 34 551 33 
1111 551 552 33 
1112 33 552 32 
1113 132 548 39 
1114 133 547 85 
1115 368 561 366 
1116 451 555 126 
1117 368 562 561 
1118 248 554 232 
1119 293 553 432 
1120 109 562 368 
1121 252 556 250 
1122 445 557 103 
1123 256 559 254 
1124 442 560 440 
1125 292 568 293 
1126 260 563 258 
1127 319 574 318 
1128 124 564 455 
1129 564 565 455 
1130 455 565 107 
1131 565 566 107 
1132 107 566 454 
1133 566 567 454 
1134 454 567 125 
1135 567 569 125 
1136 125 569 444 
1137 569 571 444 
1138 444 571 99 
1139 287 575 285 
1140 472 572 310 
1141 98 545 522 
1142 475 576 132 
1143 518 546 128 
1144 507 568 292 
1145 535 577 97 
1146 544 568 118 
1147 97 577 531 
1148 546 576 321 
1149 558 573 235 
1150 293 568 544 
1151 546 574 128 
1152 367 573 558 
$EndElements
