$MeshFormat
4.1 0 8
$EndMeshFormat
$PhysicalNames
4
1 1 "Gamma_D_hot"
1 2 "Gamma_D_cold"
1 3 "Gamma_N_insulated"
2 100 "Omega"
$EndPhysicalNames
$Entities
4 4 1 0
1 0 0 0 0 
2 2.8 0 0 0 
3 2.8 1 0 0 
4 0 1 0 0 
1 -1.000000000583867e-07 -1e-07 -1e-07 2.8000001 1e-07 1e-07 1 3 2 1 -2 
2 2.7999999 -9.999999994736442e-08 -1e-07 2.8000001 1.0000001 1e-07 1 2 2 2 -3 
3 -1.000000000583867e-07 0.9999999000000001 -1e-07 2.8000001 1.0000001 1e-07 1 3 2 3 -4 
4 -1e-07 -9.999999994736442e-08 -1e-07 1e-07 1.0000001 1e-07 1 1 2 4 -1 
1 -1.000000000583867e-07 -9.999999994736442e-08 -1e-07 2.8000001 1.0000001 1e-07 1 100 4 1 2 3 4 
$EndEntities
$Nodes
9 175 1 175
0 1 0 1
1
0 0 0
0 2 0 1
2
2.8 0 0
0 3 0 1
3
2.8 1 0
0 4 0 1
4
0 1 0
1 1 0 17
5
6
7
8
9
10
11
12
13
14
15
16
17
18
19
20
21
0.1555555555555554 0 0
0.3111111111111109 0 0
0.4666666666666664 0 0
0.6222222222222217 0 0
0.777777777777777 0 0
0.9333333333333323 0 0
1.088888888888888 0 0
1.244444444444443 0 0
1.399999999999998 0 0
1.555555555555553 0 0
1.711111111111109 0 0
1.866666666666665 0 0
2.02222222222222 0 0
2.177777777777776 0 0
2.333333333333332 0 0
2.488888888888888 0 0
2.644444444444443 0 0
1 2 0 6
22
23
24
25
26
27
2.8 0.1428571428571429 0
2.8 0.2857142857142858 0
2.8 0.4285714285714286 0
2.8 0.5714285714285715 0
2.8 0.7142857142857143 0
2.8 0.8571428571428572 0
1 3 0 17
28
29
30
31
32
33
34
35
36
37
38
39
40
41
42
43
44
2.644444444444444 1 0
2.488888888888889 1 0
2.333333333333333 1 0
2.177777777777778 1 0
2.022222222222223 1 0
1.866666666666668 1 0
1.711111111111112 1 0
1.555555555555557 1 0
1.400000000000002 1 0
1.244444444444446 1 0
1.088888888888891 1 0
0.9333333333333349 1 0
0.7777777777777799 1 0
0.622222222222224 1 0
0.4666666666666681 1 0
0.3111111111111122 1 0
0.1555555555555563 1 0
1 4 0 6
45
46
47
48
49
50
0 0.8571428571428571 0
0 0.7142857142857142 0
0 0.5714285714285714 0
0 0.4285714285714285 0
0 0.2857142857142857 0
0 0.1428571428571428 0
2 1 0 125
51
52
53
54
55
56
57
58
59
60
61
62
63
64
65
66
67
68
69
70
71
72
73
74
75
76
77
78
79
80
81
82
83
84
85
86
87
88
89
90
91
92
93
94
95
96
97
98
99
100
101
102
103
104
105
106
107
108
109
110
111
112
113
114
115
116
117
118
119
120
121
122
123
124
125
126
127
128
129
130
131
132
133
134
135
136
137
138
139
140
141
142
143
144
145
146
147
148
149
150
151
152
153
154
155
156
157
158
159
160
161
162
163
164
165
166
167
168
169
170
171
172
173
174
175
0.117645326135478 0.4994149826604298 0
2.657093666582504 0.514669679046531 0
0.8568907702367666 0.8759148717154612 0
1.945889314338124 0.1354326324107937 0
1.322222222222221 0.1347150628109124 0
1.632438486146794 0.8624529586577789 0
2.100452677672929 0.8862421112942742 0
0.7010604071415167 0.1387088340742906 0
1.166329634034431 0.8806519968086818 0
2.256829773696351 0.1345701529464272 0
0.5444444444444461 0.8652849371890871 0
1.012515186591308 0.1384227667737004 0
1.634305000252194 0.1352936548009732 0
0.3935923051313213 0.14316371434347 0
2.411451789124716 0.8713205121336871 0
2.558694607449662 0.1357249625719949 0
0.2333333333333345 0.8652849371890871 0
0.1137591501785185 0.2171430102437019 0
2.66317478750934 0.7762845043276905 0
2.41084740172325 0.1333100643674743 0
2.334615625155906 0.2664699865628455 0
2.181072043966932 0.2690125794384947 0
2.259117667944738 0.4011908498744338 0
2.105447953572307 0.4030972422808918 0
2.184240084388827 0.5352437456270214 0
2.029866062640394 0.5374368485310114 0
2.337289934269643 0.533377056939862 0
1.950908501864282 0.404736328581191 0
1.874907380323469 0.5394705893063771 0
1.795825197662528 0.4060786705166607 0
1.719666319109259 0.5412730889839338 0
1.640531064775323 0.4075452745971904 0
1.564286601986873 0.5430074060342633 0
1.48506911708151 0.4092319360277187 0
1.408814997112187 0.5447504925088412 0
1.329555840295348 0.4102026521351492 0
1.25329278352703 0.5463616662418355 0
1.174029652783614 0.4117787173628253 0
1.097761650967706 0.5480389889238714 0
1.018510957177357 0.4133757165428142 0
0.9422589899836353 0.5496846379616329 0
0.8630579772556833 0.4151432533963894 0
0.7868932724636246 0.5512178118888944 0
0.7078907269701554 0.416832060990025 0
0.6319932229601601 0.552480175766738 0
0.553218123786377 0.4197208020998993 0
0.4781329739237614 0.5535062394890516 0
0.40075017244942 0.4217960667697519 0
1.79881753930075 0.667577037279826 0
1.332467733645535 0.6725463405946467 0
2.263279975235959 0.6668136889566134 0
1.021502971167115 0.6837251380713716 0
0.7091831765936135 0.6812586849953097 0
0.3325538876532081 0.5572027386480695 0
0.4014314796136997 0.6824517978505635 0
2.416279969922817 0.6647328229323084 0
2.491631199711194 0.5274334478946493 0
0.2470675586234838 0.6986344026172848 0
0.4737902577439368 0.2840270917091988 0
0.3286480282598225 0.281040789460622 0
2.569244729017259 0.6481682033226042 0
2.561726332148821 0.390518522989129 0
0.7825758195208559 0.2782340198897358 0
1.093892704325724 0.2763921331760299 0
1.404366337434381 0.2725445452537527 0
1.716447354477564 0.2719553621395743 0
0.5476648953515743 0.1407920152562995 0
0.3894983673135228 0.8656368197216141 0
0.5542883891814557 0.6809718004019791 0
2.101829207858684 0.135040220184661 0
2.258719177241283 0.8807586737689861 0
0.7000579278894759 0.8700518520361148 0
0.6286575132037813 0.2788524514108374 0
0.8643413539983161 0.6739061413473119 0
0.8577492102272057 0.1384806043101462 0
0.9388018230715409 0.2759395590195252 0
1.168122147187311 0.138093885255539 0
1.9488235975174 0.6684754353832176 0
1.869353237298522 0.8094609800118423 0
1.176999723810707 0.6820309781720568 0
1.482377306343697 0.6740578294163746 0
1.402480944635557 0.8133468633433887 0
1.015031360269701 0.88276388937762 0
1.478451546371452 0.1352003135607591 0
1.249145133334594 0.2735892924924093 0
1.560275662616794 0.2724659719057992 0
1.636181252688291 0.6926495626512142 0
2.102675223621273 0.6600147926518199 0
1.790458784220614 0.1353424848662836 0
0.2509033694983926 0.4222571050180639 0
2.412217456327354 0.3966268532353202 0
1.871743088425096 0.2711615856537762 0
0.1154039973684835 0.3564691829870326 0
2.026148351670904 0.2697467647583014 0
2.48547545227999 0.2643927579077723 0
2.629325535070726 0.2680881058421905 0
0.2345334493763596 0.1419598919971276 0
2.565933577524293 0.8847489370856672 0
0.1192892980595119 0.6428571428571428 0
0.1175545317477733 0.7794068141034228 0
2.697902636621821 0.6449673344822223 0
1.760382900185149 0.887778638560711 0
2.68962910676041 0.3775124044327129 0
1.293803967773625 0.8926981263641584 0
2.494531504646876 0.7680654920058226 0
2.340489529766464 0.7647308329920599 0
2.027653066367841 0.7812622556775037 0
2.682735628295792 0.1559149578646182 0
2.183921237585764 0.7706030747652859 0
1.528616520199873 0.7889997895602828 0
0.2119613744286142 0.5742327909445151 0
1.971312081844258 0.8965746975036293 0
1.734551916432115 0.7791253836327486 0
2.694015078491104 0.897856983175322 0
0.1059849215088962 0.102143016824678 0
0.1012886841273328 0.9003669216870734 0
0.2086495989363155 0.2837739959413096 0
1.503818301307557 0.8929599223122902 0
1.25046630451619 0.7774800609261433 0
0.4667783327964513 0.7804441073094921 0
0.3247289703954248 0.781164066742796 0
1.095813188408939 0.7795083207834619 0
0.6222222222222247 0.7803519572550227 0
0.9385595703097699 0.7793086164547027 0
0.7788445361850187 0.7791913314635147 0
$EndNodes
$Elements
5 348 1 348
1 1 1 18
1 1 5 
2 5 6 
3 6 7 
4 7 8 
5 8 9 
6 9 10 
7 10 11 
8 11 12 
9 12 13 
10 13 14 
11 14 15 
12 15 16 
13 16 17 
14 17 18 
15 18 19 
16 19 20 
17 20 21 
18 21 2 
1 2 1 7
19 2 22 
20 22 23 
21 23 24 
22 24 25 
23 25 26 
24 26 27 
25 27 3 
1 3 1 18
26 3 28 
27 28 29 
28 29 30 
29 30 31 
30 31 32 
31 32 33 
32 33 34 
33 34 35 
34 35 36 
35 36 37 
36 37 38 
37 38 39 
38 39 40 
39 40 41 
40 41 42 
41 42 43 
42 43 44 
43 44 4 
1 4 1 7
44 4 45 
45 45 46 
46 46 47 
47 47 48 
48 48 49 
49 49 50 
50 50 1 
2 1 2 298
51 52 111 107 
52 22 158 2 
53 2 158 21 
54 52 151 111 
55 107 112 52 
56 110 147 64 
57 69 155 111 
58 109 110 64 
59 67 150 108 
60 146 158 23 
61 33 152 129 
62 129 162 33 
63 148 155 69 
64 64 117 109 
65 108 171 67 
66 138 159 157 
67 56 160 137 
68 8 117 7 
69 137 163 56 
70 110 167 147 
71 23 158 22 
72 36 154 132 
73 157 159 57 
74 113 123 58 
75 132 168 36 
76 7 117 64 
77 10 125 9 
78 58 125 113 
79 58 117 8 
80 107 141 112 
81 114 126 62 
82 71 145 141 
83 62 127 114 
84 96 123 94 
85 55 134 115 
86 12 127 11 
87 108 150 149 
88 134 136 115 
89 9 125 58 
90 62 125 10 
91 92 126 90 
92 23 153 146 
93 115 135 55 
94 141 145 112 
95 63 136 134 
96 88 135 86 
97 58 123 117 
98 67 118 43 
99 116 136 63 
100 111 151 69 
101 70 71 60 
102 109 123 96 
103 94 123 113 
104 17 120 54 
105 19 70 60 
106 55 127 12 
107 11 127 62 
108 63 139 116 
109 120 144 54 
110 18 120 17 
111 107 111 106 
112 139 142 116 
113 90 126 114 
114 77 107 106 
115 77 141 107 
116 113 126 92 
117 97 104 98 
118 54 142 139 
119 86 135 115 
120 114 135 88 
121 104 140 98 
122 97 98 96 
123 54 144 142 
124 21 66 20 
125 44 67 43 
126 66 70 20 
127 95 97 96 
128 42 118 61 
129 117 123 109 
130 62 126 125 
131 98 110 109 
132 61 122 41 
133 7 64 6 
134 30 65 29 
135 77 106 101 
136 73 77 75 
137 57 121 31 
138 60 120 18 
139 43 118 42 
140 30 121 65 
141 97 119 105 
142 105 108 104 
143 95 119 97 
144 19 60 18 
145 42 61 41 
146 95 96 94 
147 93 95 94 
148 20 70 19 
149 97 105 104 
150 103 119 95 
151 71 72 60 
152 127 135 114 
153 41 122 40 
154 40 122 53 
155 55 135 127 
156 93 94 92 
157 93 124 103 
158 93 103 95 
159 91 124 93 
160 91 93 92 
161 125 126 113 
162 77 101 75 
163 102 124 91 
164 98 140 110 
165 31 121 30 
166 71 73 72 
167 70 145 71 
168 89 91 90 
169 71 141 73 
170 91 92 90 
171 89 102 91 
172 100 130 87 
173 98 109 96 
174 99 137 81 
175 87 130 89 
176 39 133 38 
177 53 133 39 
178 38 133 59 
179 14 134 13 
180 35 56 34 
181 11 62 10 
182 13 134 55 
183 15 63 14 
184 38 59 37 
185 63 134 14 
186 17 54 16 
187 32 57 31 
188 40 53 39 
189 9 58 8 
190 13 55 12 
191 90 114 88 
192 89 90 88 
193 89 130 102 
194 85 100 87 
195 81 137 83 
196 87 89 88 
197 84 136 82 
198 131 132 100 
199 82 136 116 
200 87 88 86 
201 85 131 100 
202 86 115 84 
203 85 87 86 
204 83 131 85 
205 85 86 84 
206 115 136 84 
207 83 85 84 
208 83 137 131 
209 94 113 92 
210 83 84 82 
211 82 116 80 
212 15 139 63 
213 54 139 16 
214 79 99 81 
215 76 138 128 
216 81 83 82 
217 128 129 99 
218 79 128 99 
219 81 82 80 
220 16 139 15 
221 79 81 80 
222 76 128 79 
223 73 141 77 
224 79 80 78 
225 76 79 78 
226 116 142 80 
227 73 75 74 
228 76 78 74 
229 75 138 76 
230 75 76 74 
231 72 120 60 
232 73 74 72 
233 80 142 78 
234 101 138 75 
235 142 144 78 
236 72 144 120 
237 74 144 72 
238 78 144 74 
239 6 147 5 
240 29 148 28 
241 50 68 49 
242 27 69 26 
243 49 143 48 
244 25 52 24 
245 48 51 47 
246 66 145 70 
247 51 143 140 
248 68 143 49 
249 48 143 51 
250 145 146 112 
251 64 147 6 
252 65 148 29 
253 51 149 47 
254 47 149 46 
255 66 146 145 
256 21 158 66 
257 46 150 45 
258 140 161 51 
259 104 161 140 
260 147 167 68 
261 149 150 46 
262 34 152 33 
263 37 154 36 
264 138 157 128 
265 69 151 26 
266 25 151 52 
267 24 153 23 
268 137 160 131 
269 129 163 99 
270 132 169 100 
271 112 153 52 
272 5 165 1 
273 28 164 3 
274 4 166 44 
275 3 164 27 
276 1 165 50 
277 45 166 4 
278 174 175 124 
279 53 175 174 
280 26 151 25 
281 32 162 57 
282 35 168 56 
283 147 165 5 
284 148 164 28 
285 140 167 110 
286 152 163 129 
287 154 169 132 
288 56 152 34 
289 143 167 140 
290 59 154 37 
291 170 171 105 
292 69 164 148 
293 68 165 147 
294 121 156 65 
295 57 159 121 
296 52 153 24 
297 111 155 106 
298 65 156 155 
299 44 166 67 
300 146 153 112 
301 155 156 106 
302 121 159 156 
303 33 162 32 
304 105 171 108 
305 119 173 170 
306 119 170 105 
307 65 155 148 
308 106 156 101 
309 67 171 118 
310 36 168 35 
311 103 173 119 
312 128 157 129 
313 103 175 173 
314 108 161 104 
315 59 172 169 
316 133 174 172 
317 124 175 103 
318 133 172 59 
319 53 174 133 
320 118 171 170 
321 131 160 132 
322 101 159 138 
323 156 159 101 
324 170 173 61 
325 118 170 61 
326 99 163 137 
327 61 173 122 
328 173 175 122 
329 100 169 130 
330 169 172 130 
331 122 175 53 
332 172 174 102 
333 102 174 124 
334 130 172 102 
335 66 158 146 
336 51 161 149 
337 50 165 68 
338 27 164 69 
339 67 166 150 
340 68 167 143 
341 57 162 157 
342 149 161 108 
343 56 168 160 
344 150 166 45 
345 56 163 152 
346 59 169 154 
347 157 162 129 
348 160 168 132 
$EndElements
