$MeshFormat
4.1 0 8
$EndMeshFormat
$PhysicalNames
1
2 100 "domain"
$EndPhysicalNames
$Entities
4 4 1 0
1 0 0 0 0 
2 2 0 0 0 
3 2 1 0 0 
4 0 1 0 0 
1 -9.999999994736442e-08 -1e-07 -1e-07 2.0000001 1e-07 1e-07 0 2 1 -2 
2 1.9999999 -9.999999994736442e-08 -1e-07 2.0000001 1.0000001 1e-07 0 2 2 -3 
3 -9.999999994736442e-08 0.9999999000000001 -1e-07 2.0000001 1.0000001 1e-07 0 2 3 -4 
4 -1e-07 -9.999999994736442e-08 -1e-07 1e-07 1.0000001 1e-07 0 2 4 -1 
1 -9.999999994736442e-08 -9.999999994736442e-08 -1e-07 2.0000001 1.0000001 1e-07 1 100 4 1 2 3 4 
$EndEntities
$Nodes
9 71 1 71
0 1 0 1
1
0 0 0
0 2 0 1
2
2 0 0
0 3 0 1
3
2 1 0
0 4 0 1
4
0 1 0
1 1 0 8
5
6
7
8
9
10
11
12
0.2222222222222227 0 0
0.4444444444444451 0 0
0.6666666666666683 0 0
0.8888888888888914 0 0
1.111111111111113 0 0
1.333333333333335 0 0
1.555555555555557 0 0
1.777777777777778 0 0
1 2 0 4
13
14
15
16
2 0.2000000000000003 0
2 0.400000000000001 0
2 0.6000000000000009 0
2 0.8000000000000004 0
1 3 0 8
17
18
19
20
21
22
23
24
1.777777777777777 1 0
1.555555555555555 1 0
1.333333333333332 1 0
1.111111111111108 1 0
0.8888888888888871 1 0
0.6666666666666652 1 0
0.4444444444444433 1 0
0.2222222222222219 1 0
1 4 0 4
25
26
27
28
0 0.7999999999999996 0
0 0.599999999999999 0
0 0.3999999999999991 0
0 0.1999999999999996 0
2 1 0 43
29
30
31
32
33
34
35
36
37
38
39
40
41
42
43
44
45
46
47
48
49
50
51
52
53
54
55
56
57
58
59
60
61
62
63
64
65
66
67
68
69
70
71
1.837108213511858 0.4997925291569011 0
0.163186290878746 0.4999168947763699 0
0.9999732758533024 0.1858315077223656 0
0.7777777777777761 0.8075499102701252 0
1.222358474291173 0.8078792896970296 0
0.5501840396160115 0.2015103527208357 0
1.448030717470012 0.1986632070285488 0
0.3246125957158303 0.798367285862791 0
1.675110688334167 0.7981237167788773 0
1.445874490067185 0.8067872172696441 0
1.333811919525385 0.6163985325475122 0
1.111928623524826 0.6155712616457565 0
1.223200518058619 0.4244714887622301 0
1.443953855654954 0.4251916253240695 0
1.000815766581689 0.4370541882703569 0
1.543239086263918 0.6075427111435845 0
0.5537767731234274 0.8069643084411527 0
0.6651856131325012 0.6171204917847251 0
0.4560752993005178 0.60845503134092 0
0.5526386199988261 0.4287767332986287 0
0.7730856742063541 0.4326928372450938 0
0.7765332419530323 0.191731556636442 0
0.3142762965481442 0.1733758249922154 0
1.68572624018019 0.1727654312290469 0
1.223466758046971 0.1917315566364409 0
0.8881322425371906 0.6196522118211234 0
1.000032853021827 0.8084421122390058 0
0.1698624099746208 0.2999999999999994 0
0.3565980516881107 0.402074795442397 0
1.845612921386199 0.6931236734219088 0
0.1543949158313741 0.693185097900671 0
1.830982858534666 0.3000000000000007 0
1.642729542997218 0.4009205175258238 0
0.1426348770795637 0.8583182479082251 0
1.857326711672946 0.8582746773992718 0
0.1486698746989508 0.1417319595420437 0
1.858897375298527 0.1345530862458096 0
0.2899634054999077 0.6024887309678096 0
1.710065829364929 0.6024881187986152 0
0.887345020396725 0.3112021950593792 0
1.333956392401866 0.3085884801780535 0
0.6729106191172534 0.3122543776928779 0
1.111459621889862 0.3098132361048044 0
$EndNodes
$Elements
1 112 1 112
2 1 2 112
1 48 57 34 
2 35 61 42 
3 34 57 51 
4 52 61 35 
5 42 61 44 
6 47 57 48 
7 43 54 49 
8 42 44 39 
9 11 52 35 
10 18 38 37 
11 38 44 37 
12 49 54 46 
13 46 54 32 
14 34 51 6 
15 18 37 17 
16 24 36 23 
17 45 46 32 
18 36 47 45 
19 39 44 38 
20 22 45 32 
21 12 52 11 
22 45 47 46 
23 36 45 23 
24 7 34 6 
25 11 35 10 
26 6 51 5 
27 41 42 39 
28 31 50 8 
29 9 53 31 
30 47 48 46 
31 19 38 18 
32 33 38 19 
33 7 50 34 
34 35 53 10 
35 33 39 38 
36 40 41 39 
37 54 55 32 
38 23 45 22 
39 8 50 7 
40 10 53 9 
41 33 55 40 
42 40 55 54 
43 20 33 19 
44 22 32 21 
45 9 31 8 
46 33 40 39 
47 20 55 33 
48 32 55 21 
49 21 55 20 
50 40 43 41 
51 40 54 43 
52 48 49 46 
53 47 66 57 
54 61 67 44 
55 15 29 14 
56 27 30 26 
57 28 56 27 
58 26 59 25 
59 16 58 15 
60 14 60 13 
61 27 56 30 
62 15 58 29 
63 30 59 26 
64 56 57 30 
65 29 60 14 
66 29 61 60 
67 51 57 56 
68 5 64 1 
69 4 62 24 
70 17 63 3 
71 2 65 12 
72 60 61 52 
73 34 70 48 
74 1 64 28 
75 25 62 4 
76 3 63 16 
77 13 65 2 
78 36 66 47 
79 57 66 30 
80 44 67 37 
81 29 67 61 
82 42 69 35 
83 37 63 17 
84 24 62 36 
85 51 64 5 
86 12 65 52 
87 49 68 43 
88 59 66 36 
89 37 67 58 
90 68 70 50 
91 49 70 68 
92 31 71 68 
93 68 71 43 
94 31 68 50 
95 53 71 31 
96 50 70 34 
97 35 69 53 
98 41 69 42 
99 69 71 53 
100 41 71 69 
101 56 64 51 
102 48 70 49 
103 58 63 37 
104 36 62 59 
105 43 71 41 
106 52 65 60 
107 28 64 56 
108 16 63 58 
109 59 62 25 
110 60 65 13 
111 30 66 59 
112 58 67 29 
$EndElements
